<?xml version="1.0" encoding="utf-8"?>
<!-- Generator: Adobe Illustrator 24.2.1, SVG Export Plug-In . SVG Version: 6.00 Build 0)  -->
<svg version="1.1" id="Layer_1" xmlns="http://www.w3.org/2000/svg" xmlns:xlink="http://www.w3.org/1999/xlink" x="0px" y="0px"
	 viewBox="0 0 1000 1000" style="enable-background:new 0 0 1000 1000;" xml:space="preserve">
<style type="text/css">
	.st0{display:none;fill:#14B8A6;stroke:#14B8A6;stroke-width:40;stroke-miterlimit:10;}
</style>
<path d="M749.5,0H250.5C112.1,0,0,112.1,0,250.5v499.1C0,887.9,112.1,1000,250.5,1000h499.1c138.3,0,250.5-112.1,250.5-250.5V250.5
	C1000,112.1,887.9,0,749.5,0z M943.4,255.3c-1.8,55.1-9,110.4-21.4,164.1l-0.3,1.2c-24.6,89.9-60,179.7-91.3,259
	c-6.2,15.6-12,30.4-17.6,44.9c-2.8,7.2-5.5,14.5-8.2,21.6c-15,39.8-29.2,77.3-53.5,108.9c-13.2,17.7-28.2,31.5-44.6,40.9
	c-16.9,9.7-35.7,14.7-55,14.7c-2.8,0-5.7-0.1-8.5-0.3c-30.2-1.7-58.3-16.9-83.5-45.3c-19.6-22-34.1-48.2-44.6-68.5l-0.3-0.6
	c-20.7-42.6-39-92.4-55.5-140.4c-2.7,10.8-5.2,21.9-7.7,32.6c-12.5,54.4-25.5,110.7-59.4,152.3c-16.2,19.7-36,33.3-57.5,39.3
	l-0.4,0.1c-24.3,6.5-49.9,3.5-72.2-8.3l-1.2-0.7c-36-21.3-52.1-55.1-64.3-85.1c-12.1-29.7-23.3-67.6-35.4-119.4
	c-13-55.3-24.1-115.6-34.9-173.9c-10.9-59.1-21.2-115-32.7-162.2c-5.1-20.8-11.1-40.1-16.4-57.2l-1.2-4c-0.9-3.1-1.9-6-2.7-8.7
	c-4.6-14.4-8.9-28-9.2-44.3c-0.6-29.9,23.2-54.7,53.1-55.3c13.6-0.3,26.7,4.5,36.9,13.5c9.8,8.6,16.1,20.4,17.9,33.3
	c0.8,3,3.6,11.1,6.1,18.3c6.3,18.2,15.7,45.7,24.1,76.3c14.4,52.1,27.5,113.7,40.1,173.2c11.6,54.9,23.7,111.7,36.9,161.7
	c9.3,35.1,18.4,63.5,27,84.9c0.8-2.4,1.6-4.9,2.4-7.6c7.5-24.4,15-54.2,23-85.7l3-11.7c3-12.4,6-24.6,8.9-36.6
	c9.7-40.4,18.9-78.6,27.7-108.2l0-0.1c1.1-3.5,2.1-7.1,3-10.5c1.5-5.3,3-10.8,4.9-16.5c2.1-6.8,5-13.5,8.5-19.7
	c7.9-14.7,20.7-26.3,36.1-32.9c23.4-10.2,50.2-4.9,66.5,4.8l0.1,0.1c9.7,5.8,17.9,13.4,24.6,22.4c9.2,11.9,15.2,24,20.6,35.4
	c11.4,24.2,22.7,54.6,34.2,86.2c3.1,8.5,6.3,17.1,9.4,25.9c21.4,58.7,43.5,119.4,65.6,161.8l0.3,0.6c1.2,2.4,2.4,4.7,3.5,6.9
	c6.2-16.4,13.2-36.6,20-56.4l2.7-7.9c6.3-18.5,12.9-37.2,19.9-57.1c27.2-77.7,55.4-158,73-232.9l0.2-1c12-44.4,20.1-90.1,24.2-135.9
	c0.3-2.7,0.6-5.4,1.2-8.1c1.6-8.3,3.2-16.3,4.5-23.2c-2.8-7.3-4.4-15.1-4.4-23.4c-0.1-30.8,21.8-57.8,51.9-64.1
	c18.4-3.8,40.3,1.2,56.9,12.1l0.1-0.1c28.3,18.4,34.5,44,38.2,59.3l0.1,0.5c4,16.4,5.6,33,6.7,48.4l0,0.3
	C943.5,250.2,943.5,252.8,943.4,255.3z"/>
<path class="st0" d="M90.1,197.4c-0.3-13.4,10.3-24.4,23.7-24.7c12.6-0.3,23.2,9.1,24.6,21.6c0.7,6.8,17.3,48.1,30.9,97.8
	c27.4,98.7,49,229.1,76.9,334.6c11.6,43.4,23.1,78.6,34.7,103.5c10.6,22.9,21.6,33.6,23,34.3c2.1,1.1-0.7,1-0.2,0.8
	c0,0,2.6-1,6.9-6.3c15.9-19.5,32.1-85.9,49.1-152.7c13.4-54.8,25.1-106.2,36.2-143.5c2.9-9.5,5-18,7.8-26.4c1.6-5,3.6-9.9,6.2-14.4
	c4.7-8.9,12.4-15.9,21.7-19.8c13.9-6.1,30.5-2.2,39.3,3c6.3,3.8,11.8,8.8,16.1,14.8c7.2,9.2,12.1,19,17.3,30.1
	c10.8,22.9,21.5,51.7,33.2,83.8c24.1,65.8,50.2,140.5,76.6,191.3c10.4,21,20,36.9,28,46.2c2.3,2.9,5.1,5.5,8.1,7.7
	c1.1,0.7-3.3-0.2-1.4,0c-0.2,0-4.8,0.6-4.1,0.2c1.2-0.8,5.1-3.9,10.1-11.1c10.9-16.2,24.2-55.5,40.9-104
	c31.1-90.7,71.2-197,93.7-292.9c12.5-46.2,20.9-93.4,25.1-141c0.1-1.6,0.4-3.3,0.7-4.9c2.7-13.8,5-25.5,6.3-34c0.6-4,1-7.1,1.1-9
	c0-0.8,0-1.3,0-1.3s0.5,3.5,0.3,2.2l3.6,10.4c-0.7-1.3,4.7,6.4,3.2,4.6c-2.3-2.7,13.9,9.2,9.8,7.4c-4.1-1.9,15.1,2.6,11.7,2.6
	c-19.5,0-35.3-15.7-35.4-35.2c0-16.7,11.7-31.2,28.1-34.6c13.9-2.9,33.7,4.3,42.7,15.2l-8.2-7.4c18.5,12.1,22.2,28.1,25.5,41.7
	c3.3,13.7,4.8,28,5.9,43.5c0.1,1.6,0.1,3.3,0.1,5c-1.8,53.4-8.7,106.4-20.7,158.5c-28.9,105.7-73.7,212.7-108,300.9
	c-18.2,47-31.9,89.9-57.7,123.3c-9.8,13.2-21.4,24.8-35.5,32.9c-14.1,8.1-30.4,11.7-46.7,10.4c-26.3-1.4-47.5-17.8-63.1-35.3
	c-15.6-17.5-28.2-38.7-40.3-62.3c-29.7-61.1-54.3-137.9-76.7-203.8c-10.8-31.8-20.5-59.7-28.6-78.6c-2.3-5.8-5.1-11.3-8.2-16.7
	c-0.2-0.3,0.7,0.8,0.3,0.3c-0.4-0.5,3.3,3,2.2,2.1c1.3,0.8,2.5,1.6,3.6,2.6c-1.2-0.8,6.2,3,4.5,2.2c-2.7-1.1,13.9,2.7,10,2.4
	c-3.9-0.3,16-2.3,12.1-1.2c-2.3,0.7,9.4-4.3,7.4-3.1c-3,1.7,8.2-6.7,6.7-5.1c-1.5,1.6,3.5-4.3,2.9-3.5c-0.8,1.1,0.9-1.4,0.9-1.4
	s-0.3,0.6-0.6,1.4c-1.6,4-4.2,12.4-7.7,23c-11,32.8-24,83.8-38.7,138.9C411.3,689,402,758.2,365.1,803.3
	c-11.2,13.7-25.4,24.7-42.4,29.4c-16.9,4.5-35,2.4-50.4-5.8c-26.6-15.7-39.6-40.8-51.8-70.5c-12.6-30.9-23.3-69.2-34-114.9
	c-25.8-110.1-44.5-240.9-67.7-336.4c-5.8-23.4-12.5-44.7-18.1-62.9C95.4,224.7,90.4,212,90.1,197.4z"/>
</svg>
