<svg xmlns="http://www.w3.org/2000/svg" width="221.1826" height="26.2587" viewBox="0 0 221.1826 26.2587"><defs><style>.a{fill:#1e555c;stroke:#1e555c;stroke-width:0.75px;}.a,.b{stroke-miterlimit:10;}.b{fill:#f15152;stroke:#f15152;stroke-width:1.5px;}</style></defs><path class="a" d="M45.3433,41.8945a.6706.6706,0,0,1,.1977-.4951.6474.6474,0,0,1,.4756-.1982.6181.6181,0,0,1,.4561.1782.7525.7525,0,0,1,.2177.416,2.44,2.44,0,0,0,.1192.4561q.1186.3771.3369,1.01.2167.6351.3764,1.229.3956,1.3872,1.07,4.5772t1.0307,4.5776a21.9258,21.9258,0,0,0,.9512,2.8535,2.291,2.291,0,0,0,.6338.9512c.0527,0,.1191-.0523.1982-.1582a19.339,19.339,0,0,0,1.3477-4.2012q.7925-3.3288.9907-3.9238a1.8517,1.8517,0,0,0,.0991-.3369c.04-.1714.0723-.2969.0992-.3765a1.3827,1.3827,0,0,1,.1982-.396,1.1776,1.1776,0,0,1,1.6646-.4756,2.085,2.085,0,0,1,.436.396,3.3379,3.3379,0,0,1,.4756.8325q.3163.6747.9111,2.2989,1.5059,4.0825,2.1006,5.2314a7.4744,7.4744,0,0,0,.7534,1.2681c.0791.0791.1582.1587.2378.2378H60.562a1.1761,1.1761,0,0,0,.2774-.3169,18.0356,18.0356,0,0,0,1.11-2.8535q.1575-.4359.6538-1.8628t.753-2.16q.2569-.7324.6142-1.9023.3567-1.1682.5552-2.12a24.1632,24.1632,0,0,0,.7134-3.8448v-.1582q.1187-.6738.1582-.9116a1.0846,1.0846,0,0,0,.0395-.2378v0l.1192.2774c.0258.0532.0527.1059.0791.1587l.2778.1982a.695.695,0,0,0,.3169.0791.8858.8858,0,0,1-.6738-.2974.9835.9835,0,0,1-.2774-.6933.9193.9193,0,0,1,.2178-.6143,1.0047,1.0047,0,0,1,.5352-.3369,1.21,1.21,0,0,1,1.1889.436l-.2378-.1982a1.9441,1.9441,0,0,1,.7134,1.1094q.0791.4761.1587,1.229v.1186a21.9685,21.9685,0,0,1-.5947,4.36q-.594,2.14-2.9327,8.2432-.08.1589-.2973.7334t-.2974.7924q-.08.2182-.2573.6143a6.6647,6.6647,0,0,1-.3569.6938,4.2636,4.2636,0,0,1-.3765.5352,3.9475,3.9475,0,0,1-.9907.9116,2.3154,2.3154,0,0,1-1.11.2774h-.1582a2.5414,2.5414,0,0,1-1.7441-.9512,9.5157,9.5157,0,0,1-1.11-1.7046,58.7919,58.7919,0,0,1-2.1-5.5879,22.3876,22.3876,0,0,0-.793-2.18,2.1928,2.1928,0,0,0-.1982-.436l.04.0395a.4854.4854,0,0,1,.1187.0791.4259.4259,0,0,0,.1191.08.8767.8767,0,0,0,.2774.04H55.41a.4963.4963,0,0,0,.1982-.1192.4907.4907,0,0,0,.1983-.1186c0-.0264.0258-.0659.0791-.1192l.0395-.04-.0395.04c0,.0269-.0665.2378-.1983.6343q-.2373.6344-1.07,3.8047-.08.3178-.3174,1.3081t-.3564,1.4268a9.89,9.89,0,0,1-.3965,1.1093,4.3693,4.3693,0,0,1-.6338,1.11,2.4928,2.4928,0,0,1-1.19.7925,1.4845,1.4845,0,0,1-.4756.08,1.8791,1.8791,0,0,1-.9111-.2378A3.5891,3.5891,0,0,1,48.95,57.2124a21.7137,21.7137,0,0,1-.9512-3.1309q-.3567-1.5059-.9511-4.7163t-.9117-4.518q-.1186-.5948-.4755-1.7437A4.7861,4.7861,0,0,1,45.3433,41.8945Z" transform="translate(-44.9683 -39.8539)"/><path class="a" d="M84.3413,48.4937A.38.38,0,0,1,84.5,47.78a.2268.2268,0,0,0-.1587.0791l-.0791.0791v-.04a2.7224,2.7224,0,0,0,.04-.436v-.1187a8.3985,8.3985,0,0,0-.1192-1.3872,2.8365,2.8365,0,0,0-.3564-1.2285,5.6708,5.6708,0,0,0-2.6753-1.7441,9.0311,9.0311,0,0,0-3.9038-.5547,6.4125,6.4125,0,0,0-3.0122.7925,5.8494,5.8494,0,0,0-2.2588,3.4087,11.7189,11.7189,0,0,0-.3174,5.271,8.841,8.841,0,0,0,2.22,4.7163,4.5179,4.5179,0,0,0,3.1309,1.3076,6.1208,6.1208,0,0,0,4.28-1.6245A9.1855,9.1855,0,0,0,83.311,53.606a8.1211,8.1211,0,0,0,.8321-2.6158,6.2634,6.2634,0,0,0,.0395-.6738,5.49,5.49,0,0,0-.1186-1.1494,5.937,5.937,0,0,0-.5948-1.7437A7.0314,7.0314,0,0,0,82.28,45.7192q-.2381-.1977-.5547-.4755a.5938.5938,0,0,1-.1983-.2378c-.1059-.2115-.2119-.4224-.3169-.6343a.158.158,0,0,1-.04-.1187.2457.2457,0,0,1,.2778-.2778c.2637.0269.5152.0537.753.08a.5644.5644,0,0,1,.3169.0791q.3954.2775.7133.5151a8.1736,8.1736,0,0,1,1.7837,1.7837,7.8365,7.8365,0,0,1,1.07,2.2193,7.1956,7.1956,0,0,1,.2378,1.8232,6.5852,6.5852,0,0,1-.04.7134,9.8173,9.8173,0,0,1-.9907,3.4082,10.5716,10.5716,0,0,1-2.6157,3.4087,8.0763,8.0763,0,0,1-5.7867,2.021,6.5038,6.5038,0,0,1-4.3989-2.1006,10.7048,10.7048,0,0,1-2.6953-5.7466,13.5287,13.5287,0,0,1,.3569-6.1035,7.508,7.508,0,0,1,3.0518-4.5181,8.3113,8.3113,0,0,1,3.9233-1.03h.2378a11.18,11.18,0,0,1,4.5181.9512,6.2873,6.2873,0,0,1,3.0918,2.457,4.0519,4.0519,0,0,1,.4355,1.9024,8.0035,8.0035,0,0,1-.1582,1.7046,1.9961,1.9961,0,0,1-.1982.6338.5.5,0,0,1-.2378.2773A.4461.4461,0,0,1,84.3413,48.4937Z" transform="translate(-44.9683 -39.8539)"/><path class="a" d="M101.145,41.835v.4755a3.4551,3.4551,0,0,1-.1186.9117c-.0791.3437-.1724.6875-.2774,1.0307q-.1992.5551-.4756,1.149a12.0429,12.0429,0,0,1-.5551,1.1894,14.1021,14.1021,0,0,1-1.8623,3.0513,5.4679,5.4679,0,0,1-2.18,1.7837q.1977,4.2012.2378,4.6767a13.0384,13.0384,0,0,0,.2778,1.7832V58.917c-.0268.1059-.0537.2114-.08.3169a.8829.8829,0,0,1-.1186.3169.874.874,0,0,1-.753.3965.4455.4455,0,0,1-.1982-.04.9433.9433,0,0,1-.3569-.1191,1.1766,1.1766,0,0,1-.1582-.1187.4227.4227,0,0,1-.08-.1191.3012.3012,0,0,1-.04-.1187,1.44,1.44,0,0,1-.1191-.436c-.0264,0-.0532-.0855-.0791-.2578s-.0532-.31-.0791-.416v-.1187a18.8229,18.8229,0,0,1-.1587-1.9819q-.04-1.6245.0791-4.5576a4.383,4.383,0,0,1-1.6245-.5547,8.5971,8.5971,0,0,1-2.6953-2.9331,10.3458,10.3458,0,0,1-1.4268-4.0425,7.8832,7.8832,0,0,1,.08-3.0913.115.115,0,0,0,.04-.0791.6348.6348,0,0,1,.6338-.357.7149.7149,0,0,1,.3965.1983c.0259.0532.0527.1059.0791.1587a2.1546,2.1546,0,0,1,.1192.5151q.0387.159.1186.6538a6.8309,6.8309,0,0,0,.1587.773q.3171,1.308.7134,2.4966v.1191a.308.308,0,0,1-.1983.3169h-.2378a10.37,10.37,0,0,0,1.3873,2.2593,6.1191,6.1191,0,0,0,1.6645,1.5058,2.0259,2.0259,0,0,0,.9512.2774,1.0534,1.0534,0,0,1,.2378-.3565.5794.5794,0,0,1,.3569-.1191h.0791a.7055.7055,0,0,1,.3169.08.1178.1178,0,0,1,.08.0395,5.3245,5.3245,0,0,0,1.03-1.11,13.9926,13.9926,0,0,0,1.5058-2.6949q.2769-.5946.4756-1.1494a5.6073,5.6073,0,0,0,.3569-.9907,4.5043,4.5043,0,0,0,.3169-.8721,1.62,1.62,0,0,0,.08-.5151V41.835a.736.736,0,0,1-.04-.2378.9024.9024,0,0,1,.2578-.6338.8108.8108,0,0,1,.6143-.2774.7911.7911,0,0,1,.3569.0791.8438.8438,0,0,1,.396.2774,1.0331,1.0331,0,0,1,.3369.3369A1.219,1.219,0,0,1,101.145,41.835Z" transform="translate(-44.9683 -39.8539)"/><path class="a" d="M110.5776,57.728a.9234.9234,0,0,1,.5948.2969.8772.8772,0,0,1,.2378.6143.9028.9028,0,0,1-.4756.8325,2.1174,2.1174,0,0,1-.7134.2773c-.08.0259-.1587.0528-.2378.08h-.8325q-.5947,0-1.4268-.04-.5552,0-1.3081-.04a4.0594,4.0594,0,0,1-1.7436.793,3.09,3.09,0,0,1-1.6646-.1191,1.804,1.804,0,0,1-.9907-1.07,2.3013,2.3013,0,0,1-.1192-1.1093v.0395a1.2051,1.2051,0,0,1,.3965-.7134,1.4814,1.4814,0,0,1,.416-.2378,1.3268,1.3268,0,0,1,.4561-.0791,2.8976,2.8976,0,0,1,.4756-.04,1.8537,1.8537,0,0,1,.3564.04,14.7685,14.7685,0,0,1,1.5064.1187,8.5759,8.5759,0,0,0,1.2285-4.6768q.0388-1.1886-.3174-5.707a16.711,16.711,0,0,1,.04-4.6367,5.2708,5.2708,0,0,1-1.8628-.1983.89.89,0,0,1-.3174-.1586,1.1453,1.1453,0,0,1-.3369-.5547.6376.6376,0,0,1,.06-.4756.4784.4784,0,0,0,.08-.1192.5974.5974,0,0,1,.2378-.1982,1.458,1.458,0,0,1,.6734-.1978.1148.1148,0,0,1,.0795-.04.3546.3546,0,0,1,.3565.3174,12.8249,12.8249,0,0,0,1.4268-.08,5.7622,5.7622,0,0,1,.5947-.2773,2.0487,2.0487,0,0,1,.396-.04,1.0578,1.0578,0,0,1,.7134.2773.9583.9583,0,0,1,.1586.2378.8493.8493,0,0,1,.04.8326.386.386,0,0,1-.0791.1982.4358.4358,0,0,0-.0791.1187.3008.3008,0,0,0-.04.1191,1.8307,1.8307,0,0,0-.2378.5151,11.4908,11.4908,0,0,0-.1187,2.4966q.079,1.1895.3169,3.6069t.2378,3.9629a12.3388,12.3388,0,0,1-.7925,4.875q.6731.04,1.2285.04h.9117Q110.3789,57.6887,110.5776,57.728Z" transform="translate(-44.9683 -39.8539)"/><path class="a" d="M124.2905,52.7339a3.88,3.88,0,0,1,.7134,3.0517A3.9734,3.9734,0,0,1,123.3,58.481a8.2956,8.2956,0,0,1-2.7744,1.1889,9.5107,9.5107,0,0,1-2.457.3169,9.7926,9.7926,0,0,1-1.7442-.1582,7.3259,7.3259,0,0,1-2.457-1.0307,6.6826,6.6826,0,0,1-1.3872-1.189,5.1469,5.1469,0,0,1-.5947-.7925,5.9372,5.9372,0,0,1-.4756-.9116c-.0264-.0527-.0533-.1055-.0791-.1587q-.1187-.5142-.1983-1.03v-.1191a.91.91,0,0,1,.1587-.5152q.1979-.3163.3965-.5942a.2651.2651,0,0,1,.2378-.1191.1645.1645,0,0,1,.1186.0395h.04a2.1941,2.1941,0,0,0,.4756.3569,1.0971,1.0971,0,0,1,.436.4756,3.5118,3.5118,0,0,0,.3169.6343.27.27,0,0,1,.08.1978q.1575.3178.3169.5947a4.6752,4.6752,0,0,0,1.3081,1.3872,5.7558,5.7558,0,0,0,1.7437.7134,7.9387,7.9387,0,0,0,1.3872.1982,5.101,5.101,0,0,0,.6342.04,7.9326,7.9326,0,0,0,1.3868-.1192,5.9626,5.9626,0,0,0,2.18-.832,2.6914,2.6914,0,0,0,1.2285-1.5854,2.4535,2.4535,0,0,0-.5151-1.8628,5.9357,5.9357,0,0,0-2.22-1.7437,34.1591,34.1591,0,0,1-4.9541-2.7744q-2.6557-1.9021-2.457-4.2012a4.7656,4.7656,0,0,1,1.6645-3.2495,4.1276,4.1276,0,0,1,3.5273-1.11,5.21,5.21,0,0,1,2.2989.9117l-.04-.08a37.9272,37.9272,0,0,0,.08-.3169.1152.1152,0,0,0,.04-.0791q.0388-.1583.3169-.2378a.3508.3508,0,0,1,.1587-.04.3546.3546,0,0,1,.1587.04c.1845.0532.29.1186.3168.1982v.04c.0259.0532.0528.1059.0792.1582a.3551.3551,0,0,1,.04.1587,5.5064,5.5064,0,0,0,.1191.8125q.1187.6151.1587.9712a5.1808,5.1808,0,0,1,.1187.6733,10.29,10.29,0,0,1,.2773,1.4668,1.0826,1.0826,0,0,1-.1186.5547.71.71,0,0,1-.4756.3965h-.1587a.6943.6943,0,0,1-.5151-.1983l-.04-.04-.04-.04a.9692.9692,0,0,1-.1192-.2383v-.0791a.113.113,0,0,1-.04-.0791v-.04a8.4834,8.4834,0,0,0-.4361-1.6646,2.2288,2.2288,0,0,0-.8916-1.07,3.5855,3.5855,0,0,0-1.5258-.5547,2.5021,2.5021,0,0,0-2.1207.753,3.3067,3.3067,0,0,0-1.09,2.14q-.1187,1.3081,1.7041,2.7349a35.9047,35.9047,0,0,0,4.6372,2.6948A7.8213,7.8213,0,0,1,124.2905,52.7339Z" transform="translate(-44.9683 -39.8539)"/><path class="a" d="M125.4,41.8945a.67.67,0,0,1,.1978-.4951.6471.6471,0,0,1,.4755-.1982.6179.6179,0,0,1,.4561.1782.7533.7533,0,0,1,.2178.416,2.4353,2.4353,0,0,0,.1191.4561q.1186.3771.3369,1.01.2169.6351.3765,1.229.3956,1.3872,1.07,4.5772t1.0308,4.5776a21.9129,21.9129,0,0,0,.9511,2.8535,2.291,2.291,0,0,0,.6338.9512c.0528,0,.1192-.0523.1983-.1582a19.3355,19.3355,0,0,0,1.3476-4.2012q.7926-3.3288.9908-3.9238a1.8688,1.8688,0,0,0,.0991-.3369c.04-.1714.0722-.2969.0991-.3765a1.3853,1.3853,0,0,1,.1982-.396,1.1777,1.1777,0,0,1,1.6646-.4756,2.085,2.085,0,0,1,.436.396,3.3379,3.3379,0,0,1,.4756.8325q.3165.6747.9111,2.2989,1.506,4.0825,2.1006,5.2314a7.4735,7.4735,0,0,0,.7535,1.2681c.0791.0791.1582.1587.2377.2378h-.1586a1.1761,1.1761,0,0,0,.2773-.3169,18.02,18.02,0,0,0,1.11-2.8535q.1574-.4359.6538-1.8628t.7529-2.16q.2571-.7324.6143-1.9023.3565-1.1682.5551-2.12a24.1632,24.1632,0,0,0,.7134-3.8448v-.1582q.1187-.6738.1582-.9116a1.08,1.08,0,0,0,.04-.2378v0l.1191.2774c.0259.0532.0527.1059.0791.1587l.2778.1982a.6953.6953,0,0,0,.3169.0791.8861.8861,0,0,1-.6738-.2974.9834.9834,0,0,1-.2773-.6933.9192.9192,0,0,1,.2177-.6143,1.0054,1.0054,0,0,1,.5352-.3369,1.2105,1.2105,0,0,1,1.189.436l-.2378-.1982a1.9435,1.9435,0,0,1,.7133,1.1094q.0792.4761.1587,1.229v.1186a21.9611,21.9611,0,0,1-.5947,4.36q-.594,2.14-2.9326,8.2432-.08.1589-.2974.7334t-.2973.7924q-.08.2182-.2574.6143a6.6647,6.6647,0,0,1-.3569.6938,4.2429,4.2429,0,0,1-.3765.5352,3.9458,3.9458,0,0,1-.9907.9116,2.315,2.315,0,0,1-1.11.2774H140.54a2.5418,2.5418,0,0,1-1.7442-.9512,9.5212,9.5212,0,0,1-1.11-1.7046,58.7919,58.7919,0,0,1-2.1-5.5879,22.3949,22.3949,0,0,0-.7929-2.18,2.193,2.193,0,0,0-.1983-.436l.04.0395a.4845.4845,0,0,1,.1186.0791.4267.4267,0,0,0,.1192.08.8764.8764,0,0,0,.2773.04h.3169a.4974.4974,0,0,0,.1983-.1192.49.49,0,0,0,.1982-.1186c0-.0264.0259-.0659.0791-.1192l.04-.04-.04.04c0,.0269-.0664.2378-.1982.6343q-.2374.6344-1.07,3.8047-.08.3178-.3174,1.3081T134,56.3013a9.87,9.87,0,0,1-.3965,1.1093,4.3663,4.3663,0,0,1-.6338,1.11,2.4925,2.4925,0,0,1-1.1894.7925,1.4845,1.4845,0,0,1-.4756.08,1.8785,1.8785,0,0,1-.9111-.2378,3.59,3.59,0,0,1-1.3873-1.9424,21.7281,21.7281,0,0,1-.9511-3.1309q-.3567-1.5059-.9512-4.7163t-.9116-4.518q-.1187-.5948-.4756-1.7437A4.7907,4.7907,0,0,1,125.4,41.8945Z" transform="translate(-44.9683 -39.8539)"/><path class="a" d="M164.3984,48.4937a.38.38,0,0,1,.1587-.7134.227.227,0,0,0-.1587.0791l-.0791.0791v-.04a2.7224,2.7224,0,0,0,.04-.436v-.1187a8.3985,8.3985,0,0,0-.1192-1.3872,2.8365,2.8365,0,0,0-.3564-1.2285,5.67,5.67,0,0,0-2.6753-1.7441,9.0309,9.0309,0,0,0-3.9038-.5547,6.4132,6.4132,0,0,0-3.0122.7925,5.85,5.85,0,0,0-2.2588,3.4087,11.72,11.72,0,0,0-.3174,5.271,8.8417,8.8417,0,0,0,2.22,4.7163,4.5179,4.5179,0,0,0,3.1309,1.3076,6.1208,6.1208,0,0,0,4.28-1.6245,9.1856,9.1856,0,0,0,2.0215-2.6953A8.1232,8.1232,0,0,0,164.2,50.99a6.2378,6.2378,0,0,0,.04-.6738,5.49,5.49,0,0,0-.1186-1.1494,5.94,5.94,0,0,0-.5947-1.7437,7.0317,7.0317,0,0,0-1.189-1.7041q-.2381-.1977-.5547-.4755a.5928.5928,0,0,1-.1982-.2378c-.106-.2115-.2119-.4224-.3169-.6343a.1577.1577,0,0,1-.04-.1187.2457.2457,0,0,1,.2779-.2778c.2636.0269.5151.0537.7529.08a.5644.5644,0,0,1,.3169.0791q.3956.2775.7134.5151a8.178,8.178,0,0,1,1.7837,1.7837,7.8363,7.8363,0,0,1,1.07,2.2193,7.1956,7.1956,0,0,1,.2378,1.8232,6.5852,6.5852,0,0,1-.04.7134,9.8152,9.8152,0,0,1-.9907,3.4082,10.5716,10.5716,0,0,1-2.6157,3.4087,8.0762,8.0762,0,0,1-5.7866,2.021,6.5038,6.5038,0,0,1-4.399-2.1006,10.7048,10.7048,0,0,1-2.6953-5.7466,13.5287,13.5287,0,0,1,.357-6.1035,7.5079,7.5079,0,0,1,3.0517-4.5181,8.3114,8.3114,0,0,1,3.9234-1.03h.2378a11.18,11.18,0,0,1,4.518.9512,6.2869,6.2869,0,0,1,3.0918,2.457,4.0531,4.0531,0,0,1,.4356,1.9024,8.01,8.01,0,0,1-.1582,1.7046,1.9983,1.9983,0,0,1-.1983.6338.5.5,0,0,1-.2378.2773A.4461.4461,0,0,1,164.3984,48.4937Z" transform="translate(-44.9683 -39.8539)"/><path class="a" d="M181.2021,41.835v.4755a3.4551,3.4551,0,0,1-.1186.9117c-.0791.3437-.1724.6875-.2773,1.0307q-.1993.5551-.4756,1.149a12.0441,12.0441,0,0,1-.5552,1.1894,14.1021,14.1021,0,0,1-1.8623,3.0513,5.4672,5.4672,0,0,1-2.18,1.7837q.1977,4.2012.2378,4.6767a13.0384,13.0384,0,0,0,.2778,1.7832V58.917c-.0268.1059-.0537.2114-.08.3169a.8464.8464,0,0,1-.8715.7134.4463.4463,0,0,1-.1983-.04.944.944,0,0,1-.3569-.1191,1.1835,1.1835,0,0,1-.1582-.1187.4248.4248,0,0,1-.08-.1191.3012.3012,0,0,1-.04-.1187,1.4428,1.4428,0,0,1-.1191-.436c-.0264,0-.0532-.0855-.0791-.2578s-.0532-.31-.0791-.416v-.1187a18.8229,18.8229,0,0,1-.1587-1.9819q-.04-1.6245.0791-4.5576a4.3843,4.3843,0,0,1-1.6245-.5547,8.5981,8.5981,0,0,1-2.6953-2.9331,10.3458,10.3458,0,0,1-1.4268-4.0425,7.8832,7.8832,0,0,1,.08-3.0913.1152.1152,0,0,0,.04-.0791.6348.6348,0,0,1,.6338-.357.7149.7149,0,0,1,.3964.1983c.0259.0532.0528.1059.0791.1587a2.15,2.15,0,0,1,.1192.5151q.0389.159.1186.6538a6.8533,6.8533,0,0,0,.1587.773q.3173,1.308.7134,2.4966v.1191a.3081.3081,0,0,1-.1982.3169h-.2378a10.3652,10.3652,0,0,0,1.3872,2.2593,6.1206,6.1206,0,0,0,1.6645,1.5058,2.0259,2.0259,0,0,0,.9512.2774,1.0534,1.0534,0,0,1,.2378-.3565.58.58,0,0,1,.3569-.1191h.0791a.7052.7052,0,0,1,.3169.08.1176.1176,0,0,1,.08.0395,5.3245,5.3245,0,0,0,1.03-1.11,13.9873,13.9873,0,0,0,1.5058-2.6949q.2769-.5946.4756-1.1494a5.608,5.608,0,0,0,.357-.9907,4.511,4.511,0,0,0,.3169-.8721,1.6232,1.6232,0,0,0,.08-.5151V41.835a.7334.7334,0,0,1-.04-.2378.9028.9028,0,0,1,.2578-.6338.8108.8108,0,0,1,.6143-.2774.7908.7908,0,0,1,.3569.0791.8433.8433,0,0,1,.396.2774,1.0322,1.0322,0,0,1,.3369.3369A1.219,1.219,0,0,1,181.2021,41.835Z" transform="translate(-44.9683 -39.8539)"/><path class="a" d="M205.7734,47.5024c-.0268.212-.1328.3174-.3173.3174a.3153.3153,0,0,1-.3565-.3569,5.9953,5.9953,0,0,0-.2378-1.9419c-.0532-.1055-.0932-.1846-.1191-.2378l-.04-.04h.04a.3519.3519,0,0,0,.1587.04h.1186a.6766.6766,0,0,0,.2183-.1191.4235.4235,0,0,0,.1387-.1978.164.164,0,0,0,.04-.1191v.1587a4.8331,4.8331,0,0,0-.0991.9511q-.0205.6343,0,1.5655t.0791,1.7636q.06.8321.1191,2.0611t.0991,1.9419a27.2728,27.2728,0,0,0,.1983,2.9326.7353.7353,0,0,0,.04.2378l-.04-.04c-.0269-.0527-.0532-.1054-.08-.1587a92.0487,92.0487,0,0,0-.2378-.1582.6127.6127,0,0,0-.2378-.08l-.1977-.04c-.106.0268-.1983.0532-.2779.08a.4921.4921,0,0,0-.1977.1186.6021.6021,0,0,0-.1192.1587l-.0791.0791v.04a.3.3,0,0,1,.04-.1187q.0388-.4357-.2774-4.1616-.04-.5142-.1386-1.4663t-.1787-1.7241q-.08-.7728-.1187-1.4463a9.3956,9.3956,0,0,1,.7134-4.9942,3.8267,3.8267,0,0,1,2.2988-1.6645,7.3578,7.3578,0,0,1,2.814-.2774,6.3617,6.3617,0,0,1,2.4966.5552,3.8217,3.8217,0,0,1,1.7436,2.2193,8.6152,8.6152,0,0,1,.5552,2.7744,6.0417,6.0417,0,0,1-.4756,3.21,4.6456,4.6456,0,0,1-1.8628,1.9419,10.5034,10.5034,0,0,1-2.2593.9512,5.5284,5.5284,0,0,1-1.4663.2778h-.2378a6.365,6.365,0,0,1-.7134-.04,3.5822,3.5822,0,0,1-.4755-.1978.9552.9552,0,0,1-.5547-.6738v-.2378a1.01,1.01,0,0,1,.2773-.6738,1.0647,1.0647,0,0,1,.2774-.1983,3.2438,3.2438,0,0,1,.5151-.2773,10.5884,10.5884,0,0,1,1.189-.3965,10.1987,10.1987,0,0,1,3.6464-.396,4.0665,4.0665,0,0,1,2.6158,1.03,4.2714,4.2714,0,0,1,1.3476,2.9326,6.3152,6.3152,0,0,1-.5947,3.3692,4.9192,4.9192,0,0,1-2.4971,2.18,10.2,10.2,0,0,1-1.2285.5547,10.959,10.959,0,0,1-2.2588.3965,5.2245,5.2245,0,0,1-.6343.04c-.2646,0-.5419-.0137-.8325-.04a6.5052,6.5052,0,0,1-2.06-.5947.3162.3162,0,0,0-.1192-.04,3.7629,3.7629,0,0,1-1.3872-1.4267l.04.0791a3.1788,3.1788,0,0,1-.3369-.5943,3.8961,3.8961,0,0,1-.2183-.6342v-.1582a.6769.6769,0,0,1,.5151-.7134l.04-.04h.04a.1354.1354,0,0,1,.0991-.04.1379.1379,0,0,1,.0992.04h-.04a.7093.7093,0,0,1,.7534.5552,1.4872,1.4872,0,0,0,.1187.3169,1.0505,1.0505,0,0,0,.1982.2774l-.0791-.0791a2.0742,2.0742,0,0,0,.9908.5151.1577.1577,0,0,0,.1186.04,4.3394,4.3394,0,0,0,1.4268.357q.4761.0395.9511.0395h.2378a9.805,9.805,0,0,0,1.7442-.2378,5.6074,5.6074,0,0,0,1.1494-.2773,3.0039,3.0039,0,0,0,1.6245-1.3081,4.3519,4.3519,0,0,0,.5156-2.4175,2.9344,2.9344,0,0,0-.7929-1.9419,2.5433,2.5433,0,0,0-1.6646-.5151,8.4342,8.4342,0,0,0-3.0117.3564,9.4424,9.4424,0,0,0-.9912.3965,1.0291,1.0291,0,0,0-.2378.1187v-.04l.08-.0791a.1149.1149,0,0,0,.04-.08.4923.4923,0,0,0,.1187-.1977l-.04-.357a.1653.1653,0,0,1,.04.1192.7605.7605,0,0,0-.04-.2378,1.3319,1.3319,0,0,0-.1587-.1983c-.0263-.0258-.0659-.0659-.1186-.1191h-.04v0a2.6182,2.6182,0,0,0,.4361.0395h.0791a6.9156,6.9156,0,0,0,1.07-.1582q2.5752-.6738,3.21-1.9819a4.9221,4.9221,0,0,0,.357-2.4175,8.2831,8.2831,0,0,0-.5156-2.3384,2.3781,2.3781,0,0,0-1.03-1.3872,5.8349,5.8349,0,0,0-1.8628-.3169A6.6771,6.6771,0,0,0,207.2,42.43a2.0966,2.0966,0,0,0-1.3477.9116,7.9741,7.9741,0,0,0-.5151,4.082q.0389.6745.0991,1.4268t.1582,1.7041q.0988.9514.1387,1.4663.3567,3.8849.3174,4.5186a1.502,1.502,0,0,1-.08.4755.8664.8664,0,0,1-.1582.3565.8785.8785,0,0,1-.8721.3169.7178.7178,0,0,1-.5547-.3565.5786.5786,0,0,1-.1587-.2773,2.2744,2.2744,0,0,1-.1587-.5151,31.2861,31.2861,0,0,1-.1582-3.21q0-.6335-.02-2.3384t-.0195-2.6157a15.1035,15.1035,0,0,1,.2773-3.7256,1.5425,1.5425,0,0,1,.0791-.1982.6348.6348,0,0,1,.357-.2774.5989.5989,0,0,1,.7134.1587.9.9,0,0,1,.1186.2774.3159.3159,0,0,1,.04.1191q.0395.3567.0795.7134A6.4519,6.4519,0,0,1,205.7734,47.5024Z" transform="translate(-44.9683 -39.8539)"/><path class="a" d="M230.4238,57.728a1.0153,1.0153,0,0,1,.04.8321,1.087,1.087,0,0,1-.5948.7133,2.5249,2.5249,0,0,1-.4555.1783,3.9583,3.9583,0,0,1-.4956.0991,9.205,9.205,0,0,1-1.1494.1982,18.7133,18.7133,0,0,1-2.021.2378q-1.15.0792-2.22.08a19.2326,19.2326,0,0,1-2.021-.1587,4.96,4.96,0,0,1-1.9819-.5552,2.1985,2.1985,0,0,1-.9907-1.5454,8.0447,8.0447,0,0,1-.04-1.8628q.0389-.7925.4361-4.2407.4753-4.4779.5151-5.9053.0388-.9111.06-2.2392.019-1.3272.0595-1.6841v-.1191a1.52,1.52,0,0,1,.1187-.4756c.0259,0,.0395-.02.0395-.06a.2156.2156,0,0,1,.02-.0991.3267.3267,0,0,1,.1186-.0991c.0659-.04.1519-.0855.2578-.1387a.8577.8577,0,0,1,.5152,0,1.71,1.71,0,0,1,.2378.1387.36.36,0,0,1,.0991.0991,1.6259,1.6259,0,0,1,.06.1587,2.5175,2.5175,0,0,1,.1582.4756v.1191q.1192,2.4177.0795,3.9233,0,1.4672-.3964,6.1036-.2381,3.25-.2774,4.1416a3.9151,3.9151,0,0,0,.0791,1.2485v.0791a3.1325,3.1325,0,0,0,1.0308.1587,17.6783,17.6783,0,0,0,1.8227.0791q1.03,0,2.0611-.04,1.07-.0387,1.9419-.0791.5544-.0791.9511-.1587a.879.879,0,0,0,.2774-.0395,1.4043,1.4043,0,0,0,.1982-.08,1.1758,1.1758,0,0,1,.4361-.0791,1.1329,1.1329,0,0,1,.5151.1191,1.1732,1.1732,0,0,1,.3965.3169A.6309.6309,0,0,1,230.4238,57.728Z" transform="translate(-44.9683 -39.8539)"/><path class="a" d="M247.1094,48.4937a.38.38,0,0,1,.1587-.7134.2268.2268,0,0,0-.1587.0791l-.0791.0791v-.04a2.7215,2.7215,0,0,0,.0395-.436v-.1187a8.3982,8.3982,0,0,0-.1191-1.3872,2.8362,2.8362,0,0,0-.3565-1.2285,5.67,5.67,0,0,0-2.6753-1.7441,9.0309,9.0309,0,0,0-3.9038-.5547,6.4132,6.4132,0,0,0-3.0122.7925,5.85,5.85,0,0,0-2.2588,3.4087,11.7189,11.7189,0,0,0-.3173,5.271,8.84,8.84,0,0,0,2.22,4.7163,4.5176,4.5176,0,0,0,3.1308,1.3076,6.1207,6.1207,0,0,0,4.28-1.6245,9.1856,9.1856,0,0,0,2.0215-2.6953,8.1208,8.1208,0,0,0,.832-2.6158,6.2389,6.2389,0,0,0,.04-.6738,5.49,5.49,0,0,0-.1187-1.1494,5.9368,5.9368,0,0,0-.5947-1.7437,7.0317,7.0317,0,0,0-1.189-1.7041q-.2381-.1977-.5546-.4755a.593.593,0,0,1-.1983-.2378c-.1059-.2115-.2119-.4224-.3169-.6343a.158.158,0,0,1-.04-.1187.2457.2457,0,0,1,.2778-.2778q.3956.04.7529.08a.5642.5642,0,0,1,.3169.0791q.3955.2775.7134.5151a8.1758,8.1758,0,0,1,1.7837,1.7837,7.8363,7.8363,0,0,1,1.07,2.2193,7.1956,7.1956,0,0,1,.2378,1.8232,6.6105,6.6105,0,0,1-.04.7134,9.8176,9.8176,0,0,1-.9908,3.4082,10.57,10.57,0,0,1-2.6157,3.4087,8.076,8.076,0,0,1-5.7866,2.021,6.5033,6.5033,0,0,1-4.3989-2.1006,10.7041,10.7041,0,0,1-2.6953-5.7466,13.5287,13.5287,0,0,1,.3569-6.1035,7.5076,7.5076,0,0,1,3.0518-4.5181,8.3113,8.3113,0,0,1,3.9233-1.03h.2378a11.18,11.18,0,0,1,4.5181.9512,6.2873,6.2873,0,0,1,3.0918,2.457,4.0544,4.0544,0,0,1,.4355,1.9024,8.0035,8.0035,0,0,1-.1582,1.7046,1.9961,1.9961,0,0,1-.1982.6338.5011.5011,0,0,1-.2378.2773A.4461.4461,0,0,1,247.1094,48.4937Z" transform="translate(-44.9683 -39.8539)"/><path class="a" d="M265.7363,54.7554q0,.5552.02,1.5854t.02,1.4663a14.5625,14.5625,0,0,1-.1582,1.5059,1.66,1.66,0,0,1-.02.2183.3412.3412,0,0,1-.06.1782.9982.9982,0,0,1-.2969.7334,1.3587,1.3587,0,0,1-.7334.3764A1.2019,1.2019,0,0,1,263.16,59.63v-.2779l.08-.396a8.79,8.79,0,0,0,.0791-1.1494v-.872a5.8459,5.8459,0,0,1-.7133.6738,9.0659,9.0659,0,0,1-3.8047,2.061,6.365,6.365,0,0,1-5.1524-.7929,5.4666,5.4666,0,0,1-2.14-3.5269,12.4988,12.4988,0,0,1,.5947-6.1431,15.87,15.87,0,0,1,2.794-5.2319,9.1258,9.1258,0,0,1,4.102-3.0913,6.0471,6.0471,0,0,1,3.4873-.0791,2.7265,2.7265,0,0,1,1.6646,1.2285,1.0132,1.0132,0,0,1,.04.9116,1.3119,1.3119,0,0,1-.7134.5547.161.161,0,0,1-.1191.04c-.2119,0-.3169-.1192-.3169-.357a.3812.3812,0,0,1,.1187-.2773c.1318-.0791.1982-.145.1982-.1983a.3174.3174,0,0,0-.04-.1186,1.9837,1.9837,0,0,0-1.11-.4361,5.2681,5.2681,0,0,0-1.1094-.1191,4.8947,4.8947,0,0,0-1.625.2773,7.6911,7.6911,0,0,0-3.5078,2.6753,13.9142,13.9142,0,0,0-2.5166,4.6568,10.3744,10.3744,0,0,0-.4756,5.39,3.9346,3.9346,0,0,0,1.5855,2.5366,4.7017,4.7017,0,0,0,3.8442.4361,7.4386,7.4386,0,0,0,3.0913-1.7442,6.0177,6.0177,0,0,0,1.7837-2.4174,1.756,1.756,0,0,0,.1582-.4361c.0527-.7134.08-1.0957.08-1.1494a.4291.4291,0,0,0-.08-.2378,2.4785,2.4785,0,0,0-1.07-.9311,8.93,8.93,0,0,0-1.7837-.7334,9.1917,9.1917,0,0,0-2.18-.2774h-.7925a.31.31,0,0,1-.1982-.04.8767.8767,0,0,1-.2774-.04.733.733,0,0,1-.5551-.7925.7171.7171,0,0,1,.436-.7133,1.5729,1.5729,0,0,1,.3174-.1192h.2773a.56.56,0,0,1,.2378-.0395q.1575,0,.7134-.06t.8721-.0991q2.6945-.2769,3.5268-.2774a8.4869,8.4869,0,0,1,.9512.04,1.7568,1.7568,0,0,1,1.1494.7529,5.986,5.986,0,0,1,.6343,2.7349q0,.6342.02,1.8823T265.7363,54.7554Zm-2.4175-5.1128c.0528.0268.1055.0532.1587.08a.1163.1163,0,0,0-.04-.08Z" transform="translate(-44.9683 -39.8539)"/><path class="b" d="M187.8965,49.832a4.8031,4.8031,0,0,1-1.9063,2.751,4.7168,4.7168,0,0,1-1.4829.7109l-.3-.6035a3.4544,3.4544,0,0,0,2.4151-2.1225c-.1206-.0122-.17-.0147-.1514-.01a1.121,1.121,0,0,1-.7573-1.3105,1.1419,1.1419,0,0,1,.5283-.7051,1.0364,1.0364,0,0,1,.8345-.13,1.1175,1.1175,0,0,1,.82,1.42Z" transform="translate(-44.9683 -39.8539)"/><path class="b" d="M195.21,62.9629a2.28,2.28,0,0,1-.5317,1.18,2.7292,2.7292,0,0,1-.9873.813,3.3492,3.3492,0,0,1-.8857.3164,4.0907,4.0907,0,0,1-1.8369-.03c-.0772-.02-.1543-.0415-.23-.062a5.8785,5.8785,0,0,1-1.332-.5415,4.694,4.694,0,0,1-.8926-.9165q-.2337-.2769-.4375-.5484c-.1133-.1933-.2173-.3759-.3164-.5459a2.2721,2.2721,0,0,1-.1387-.2832c-.0147-.0244-.0288-.0488-.042-.0732a3.0539,3.0539,0,0,1-.1152-.8311l.0229-.0859a1.2821,1.2821,0,0,1,.1646-.3867.1921.1921,0,0,1,.2031-.0684.2032.2032,0,0,1,.1284.0957,1.0659,1.0659,0,0,0,.146.2549c.0147.0244.0288.0488.0425.0732a2.8924,2.8924,0,0,0,.3237.5171l.02.0367c.0425.0722.085.145.126.2177.103.15.207.3018.31.4522a4.4766,4.4766,0,0,0,.4028.4472,3.1324,3.1324,0,0,0,.66.6377,3.8,3.8,0,0,0,1.0738.4727c.039.01.0762.02.1152.03a3.4031,3.4031,0,0,0,1.3687.06,2.9473,2.9473,0,0,0,.666-.1909,1.6408,1.6408,0,0,0,.6943-.5225,1.3693,1.3693,0,0,0,.3052-.5634c.01-.0381.02-.0772.0308-.1153a1.42,1.42,0,0,0-.5215-1.1552l-1.628-1.3907q-.5544-.4556-.8339-.7309a3.62,3.62,0,0,1-.5469-.7163,2.0008,2.0008,0,0,1-.3032-.8809,1.86,1.86,0,0,1,.4331-1.2685,3.43,3.43,0,0,1,1.1269-.99,3.8884,3.8884,0,0,1,2.0718-.6147,1.8586,1.8586,0,0,1,1.2519.6123.4567.4567,0,0,0,.0914.1172c.01-.0381.0214-.0811.0341-.1294a.29.29,0,0,0,.0069-.1367l.0229-.086a.4052.4052,0,0,1,.4732-.2734.346.346,0,0,1,.2832.3222,5.3085,5.3085,0,0,1-.14.9781q-.04.2658-.2554,1.07c-.0307.1152-.062.23-.0922.3447a.834.834,0,0,1-.0259.208l-.0073.0293-.0079.0283-.0078.0284-.0156.0576-.0073.0293a.4069.4069,0,0,1-.53.2578.4123.4123,0,0,1-.32-.3008l-.0215-.0371a.2215.2215,0,0,0-.0054-.0933q.003-.1223.0269-.3315c.0176-.1387.0308-.2271.041-.2661a1.5981,1.5981,0,0,0-.2685-1.18.8082.8082,0,0,0-.5875-.2192,2.5826,2.5826,0,0,0-1.478.4658,2.857,2.857,0,0,0-.8716.7207.9817.9817,0,0,0-.2255.6162q.02.4987,1.3125,1.6445,1.6428,1.4547,1.6337,1.4844A2.2289,2.2289,0,0,1,195.21,62.9629Z" transform="translate(-44.9683 -39.8539)"/></svg>