<svg xmlns="http://www.w3.org/2000/svg" width="199.3887" height="31.6246" viewBox="0 0 199.3887 31.6246"><defs><style>.a{fill:#14b8a6;stroke:#14b8a6;}.a,.b,.c{stroke-miterlimit:10;}.a,.c{stroke-width:0.75px;}.b{fill:#f15152;stroke:#f15152;stroke-width:1.5px;}.c{fill:#82aaff;stroke:#82aaff;}</style></defs><path class="a" d="M45.28,38.2026a.5548.5548,0,0,1,.1631-.4082.5344.5344,0,0,1,.392-.1631.5074.5074,0,0,1,.3755.147.6172.6172,0,0,1,.18.3428,2.0111,2.0111,0,0,0,.0982.3755q.0981.3105.2778.833t.31,1.0127q.3258,1.1433.8818,3.7724t.8491,3.7725a18.1264,18.1264,0,0,0,.7842,2.3516,1.8877,1.8877,0,0,0,.5225.7837c.0434,0,.0981-.0435.163-.13A15.8853,15.8853,0,0,0,51.3882,47.43q.6525-2.7436.8164-3.2334a1.5435,1.5435,0,0,0,.0815-.2778q.0491-.2118.0821-.31a1.1245,1.1245,0,0,1,.1631-.3267.9706.9706,0,0,1,1.3715-.3921,1.6843,1.6843,0,0,1,.3594.3267,2.7341,2.7341,0,0,1,.3921.686q.2607.5559.751,1.8941,1.2414,3.3648,1.7314,4.3115a6.1616,6.1616,0,0,0,.6206,1.0454c.065.0655.13.13.1958.1958h-.1308a.9565.9565,0,0,0,.229-.2612,14.887,14.887,0,0,0,.9145-2.3516q.13-.3588.5386-1.5351t.6206-1.78q.2124-.6035.5063-1.5679.2944-.9624.4576-1.747a19.8831,19.8831,0,0,0,.5879-3.1685v-.13q.0981-.5552.13-.7514A.9049.9049,0,0,0,61.84,37.86v0l.0982.2285q.0322.0659.0654.1308l.2285.1631a.5727.5727,0,0,0,.2613.0655.7294.7294,0,0,1-.5552-.2452.8083.8083,0,0,1-.2285-.5713.7559.7559,0,0,1,.18-.5063.8267.8267,0,0,1,.4409-.2778.9984.9984,0,0,1,.98.3593l-.1958-.1635a1.6054,1.6054,0,0,1,.5879.9145q.0651.3925.1308,1.0127v.0982a18.1138,18.1138,0,0,1-.49,3.5927q-.49,1.7637-2.417,6.7935-.066.1311-.2446.6045-.18.4738-.2452.6533c-.0439.12-.1142.2886-.2124.5064a5.4832,5.4832,0,0,1-.2939.5712,3.5222,3.5222,0,0,1-.31.441,3.2618,3.2618,0,0,1-.8169.7514,1.9051,1.9051,0,0,1-.9145.2285h-.13a2.0936,2.0936,0,0,1-1.4375-.7837,7.8416,7.8416,0,0,1-.9145-1.4047,48.5254,48.5254,0,0,1-1.731-4.6055,18.4632,18.4632,0,0,0-.6533-1.7964,1.8014,1.8014,0,0,0-.1631-.3589l.0327.0322a.3865.3865,0,0,1,.0977.0655.3607.3607,0,0,0,.0981.0654.7181.7181,0,0,0,.2285.0327h.2618a91.7062,91.7062,0,0,1,.3261-.1958c0-.0215.0215-.0542.0655-.0981l.0327-.0327-.0327.0327q0,.0328-.1631.5224-.1963.5231-.8819,3.1358-.0658.2614-.2612,1.0776t-.2939,1.1758a8.2037,8.2037,0,0,1-.3267.9145,3.6,3.6,0,0,1-.5229.9146,2.0577,2.0577,0,0,1-.98.6533,1.2243,1.2243,0,0,1-.3921.0654,1.552,1.552,0,0,1-.7515-.1958,2.9622,2.9622,0,0,1-1.1431-1.6,17.9786,17.9786,0,0,1-.7836-2.5806q-.2944-1.2408-.7842-3.8867t-.751-3.7232q-.0981-.49-.3921-1.4375A3.96,3.96,0,0,1,45.28,38.2026Z" transform="translate(-44.9053 -27.5105)"/><path class="a" d="M77.4194,43.6411a.3133.3133,0,0,1,.1309-.5879.19.19,0,0,0-.1309.065l-.0654.0654v-.0327a2.2239,2.2239,0,0,0,.0327-.3594v-.0977a6.9907,6.9907,0,0,0-.0976-1.143,2.3407,2.3407,0,0,0-.294-1.0127,4.6714,4.6714,0,0,0-2.2051-1.437,7.4379,7.4379,0,0,0-3.2168-.4575,5.2842,5.2842,0,0,0-2.4824.6533A4.82,4.82,0,0,0,67.229,42.106a9.6572,9.6572,0,0,0-.2612,4.3437,7.281,7.281,0,0,0,1.8291,3.8867,3.7246,3.7246,0,0,0,2.58,1.0782,5.0453,5.0453,0,0,0,3.5278-1.3394A7.5584,7.5584,0,0,0,76.57,47.8545a6.6908,6.6908,0,0,0,.686-2.1558,5.11,5.11,0,0,0,.0328-.5551,4.5066,4.5066,0,0,0-.0982-.9473,4.8957,4.8957,0,0,0-.49-1.437,5.81,5.81,0,0,0-.98-1.4048q-.1963-.1626-.4575-.3921a.4877.4877,0,0,1-.1631-.1958q-.1311-.2607-.2612-.5225a.1314.1314,0,0,1-.0328-.0981.2022.2022,0,0,1,.2286-.2285c.2172.022.4248.0439.6206.0654a.4656.4656,0,0,1,.2612.0654q.3259.2286.5879.4244a6.7349,6.7349,0,0,1,1.47,1.47,6.4458,6.4458,0,0,1,.8818,1.8291,5.9249,5.9249,0,0,1,.1963,1.5024,5.3805,5.3805,0,0,1-.0327.5879,8.0951,8.0951,0,0,1-.8164,2.8091A8.7108,8.7108,0,0,1,76.0479,51.48a6.6542,6.6542,0,0,1-4.7686,1.6655,5.3592,5.3592,0,0,1-3.6255-1.7309,8.8185,8.8185,0,0,1-2.2212-4.7359,11.1482,11.1482,0,0,1,.294-5.03,6.1831,6.1831,0,0,1,2.5151-3.7231,6.8457,6.8457,0,0,1,3.2334-.85h.1958a9.2113,9.2113,0,0,1,3.7236.7842,5.1772,5.1772,0,0,1,2.5474,2.0249,3.3356,3.3356,0,0,1,.3594,1.5678,6.5992,6.5992,0,0,1-.13,1.4043,1.6364,1.6364,0,0,1-.1636.5225.4138.4138,0,0,1-.1958.229A.3691.3691,0,0,1,77.4194,43.6411Z" transform="translate(-44.9053 -27.5105)"/><path class="a" d="M91.2681,38.1538v.3916a2.8341,2.8341,0,0,1-.0982.7515q-.0981.4248-.2285.8491-.1641.4578-.3921.9473a9.9131,9.9131,0,0,1-.457.98,11.6441,11.6441,0,0,1-1.5352,2.5147,4.51,4.51,0,0,1-1.7964,1.47q.1626,3.4621.1958,3.854a10.8439,10.8439,0,0,0,.2286,1.47v.8492c-.022.0874-.0435.1748-.065.2612a.728.728,0,0,1-.0981.2612.72.72,0,0,1-.6206.3267.3655.3655,0,0,1-.1631-.0327.7622.7622,0,0,1-.294-.0977.9713.9713,0,0,1-.1308-.0981.3576.3576,0,0,1-.0655-.0982.2443.2443,0,0,1-.0327-.0976,1.1853,1.1853,0,0,1-.0976-.3594c-.022,0-.044-.07-.0655-.2124s-.0439-.2554-.0654-.3428v-.0981A15.4969,15.4969,0,0,1,85.356,50.01q-.0322-1.34.0654-3.7564a3.6089,3.6089,0,0,1-1.3389-.4575,7.0755,7.0755,0,0,1-2.2212-2.417,8.525,8.525,0,0,1-1.1758-3.3311,6.4865,6.4865,0,0,1,.0655-2.5478.0947.0947,0,0,0,.0327-.0654.5234.5234,0,0,1,.5225-.294.59.59,0,0,1,.3266.1636c.0215.0434.0435.0869.0654.13a1.7948,1.7948,0,0,1,.0977.4248q.0323.13.0981.5385a5.614,5.614,0,0,0,.1309.6372q.2607,1.0774.5879,2.0577v.0981a.2544.2544,0,0,1-.1636.2612h-.1958a8.5253,8.5253,0,0,0,1.1431,1.8619,5.0571,5.0571,0,0,0,1.3716,1.2412,1.6726,1.6726,0,0,0,.7841.2285.8673.8673,0,0,1,.1958-.294.4772.4772,0,0,1,.294-.0981h.0654a.5835.5835,0,0,1,.2613.0654.097.097,0,0,1,.0654.0327,4.3743,4.3743,0,0,0,.8491-.9145,11.5249,11.5249,0,0,0,1.2412-2.2212q.2279-.49.3921-.9473a4.6592,4.6592,0,0,0,.2939-.8164,3.7376,3.7376,0,0,0,.2613-.7187,1.3367,1.3367,0,0,0,.0654-.4243v-.294a.6123.6123,0,0,1-.0327-.1963.7446.7446,0,0,1,.2124-.5224.6683.6683,0,0,1,.5059-.2286.6483.6483,0,0,1,.2939.0655.69.69,0,0,1,.3267.2285.8538.8538,0,0,1,.2778.2778A1.0029,1.0029,0,0,1,91.2681,38.1538Z" transform="translate(-44.9053 -27.5105)"/><path class="a" d="M99.0415,51.251a.7614.7614,0,0,1,.49.2451.7213.7213,0,0,1,.1958.5063.7441.7441,0,0,1-.3917.6861,1.7508,1.7508,0,0,1-.5878.2285q-.0983.0322-.1963.0654h-.6856q-.49,0-1.1758-.0327-.4577,0-1.0781-.0327a3.3476,3.3476,0,0,1-1.437.6533,2.5471,2.5471,0,0,1-1.3721-.0981,1.4872,1.4872,0,0,1-.8164-.8819,1.8944,1.8944,0,0,1-.0981-.9145v.0327a.9941.9941,0,0,1,.3266-.5879,1.2254,1.2254,0,0,1,.3433-.1963,1.0989,1.0989,0,0,1,.3755-.0649,2.4125,2.4125,0,0,1,.3921-.0327,1.5448,1.5448,0,0,1,.2939.0327,12.2484,12.2484,0,0,1,1.2412.0976,7.0666,7.0666,0,0,0,1.0122-3.854q.0322-.98-.2612-4.7031a13.8039,13.8039,0,0,1,.0327-3.8218,4.34,4.34,0,0,1-1.5351-.1631.7258.7258,0,0,1-.2613-.1308.94.94,0,0,1-.2778-.4571.5243.5243,0,0,1,.0493-.392.3693.3693,0,0,0,.065-.0982.4978.4978,0,0,1,.1963-.1631,1.2012,1.2012,0,0,1,.5551-.1631.0951.0951,0,0,1,.0655-.0327.2922.2922,0,0,1,.2939.2613,10.5305,10.5305,0,0,0,1.1758-.0655.7342.7342,0,0,0,.2612-.1308.6957.6957,0,0,0,.2285-.0977,1.6837,1.6837,0,0,1,.3267-.0327.8735.8735,0,0,1,.5879.2285.793.793,0,0,1,.1308.1958.7012.7012,0,0,1,.0328.686.3181.3181,0,0,1-.0655.1636.3812.3812,0,0,0-.0654.0977.2505.2505,0,0,0-.0327.0981,1.5139,1.5139,0,0,0-.1958.4248,9.45,9.45,0,0,0-.0982,2.0576q.0652.98.2613,2.9722t.1963,3.2661a10.1744,10.1744,0,0,1-.6534,4.0176q.5553.033,1.0127.0327h.751C98.8018,51.1973,98.9321,51.23,99.0415,51.251Z" transform="translate(-44.9053 -27.5105)"/><path class="a" d="M110.3423,47.1357a3.1977,3.1977,0,0,1,.5879,2.5152,3.2745,3.2745,0,0,1-1.4043,2.2207,6.8361,6.8361,0,0,1-2.2866.98,7.8213,7.8213,0,0,1-2.0249.2612,8.0791,8.0791,0,0,1-1.4371-.13,6.0346,6.0346,0,0,1-2.0253-.85,5.5117,5.5117,0,0,1-1.1431-.98,4.2514,4.2514,0,0,1-.49-.6533,4.8552,4.8552,0,0,1-.392-.7515c-.022-.0429-.044-.0864-.0655-.13q-.0974-.4242-.1631-.8492v-.0981a.7533.7533,0,0,1,.13-.4248q.1633-.2607.3267-.49a.22.22,0,0,1,.1963-.0981.1339.1339,0,0,1,.0976.0327h.0327a1.7992,1.7992,0,0,0,.3921.294.9089.9089,0,0,1,.3594.3921,2.8787,2.8787,0,0,0,.2612.5224.2232.2232,0,0,1,.0655.1636q.13.2614.2612.49a3.8478,3.8478,0,0,0,1.0776,1.1431,4.7346,4.7346,0,0,0,1.4375.5879,6.5084,6.5084,0,0,0,1.1431.1636,4.1763,4.1763,0,0,0,.5224.0327,6.551,6.551,0,0,0,1.1431-.0982,4.9125,4.9125,0,0,0,1.7964-.686,2.2164,2.2164,0,0,0,1.0127-1.3062,2.0189,2.0189,0,0,0-.4248-1.5351,4.8873,4.8873,0,0,0-1.8291-1.4375,28.1263,28.1263,0,0,1-4.0825-2.2861q-2.1885-1.5682-2.0249-3.4624a3.929,3.929,0,0,1,1.3715-2.6783,3.4037,3.4037,0,0,1,2.9068-.9145,4.2942,4.2942,0,0,1,1.8945.7514l-.0327-.0654a.2864.2864,0,0,1,.0327-.13.2905.2905,0,0,1,.0327-.1308.0947.0947,0,0,0,.0327-.0654c.0215-.087.1089-.1519.2613-.1958a.2927.2927,0,0,1,.1308-.0328.2957.2957,0,0,1,.13.0328c.1524.0439.2393.0976.2612.163v.0328c.0215.0439.0435.0874.0655.1308a.2942.2942,0,0,1,.0327.13,4.5037,4.5037,0,0,0,.0981.67q.0975.5061.13.8a4.2466,4.2466,0,0,1,.0981.5557,8.4437,8.4437,0,0,1,.2286,1.2085.8958.8958,0,0,1-.0977.457.5849.5849,0,0,1-.3921.3267h-.1308a.5726.5726,0,0,1-.4244-.1631l-.0327-.0327-.0327-.0327a.8022.8022,0,0,1-.0981-.1963v-.065a.0927.0927,0,0,1-.0328-.0654V41.126a6.9583,6.9583,0,0,0-.3593-1.3721,1.838,1.838,0,0,0-.7349-.8818,2.9573,2.9573,0,0,0-1.2573-.4571,2.0623,2.0623,0,0,0-1.7476.6206,2.7232,2.7232,0,0,0-.8979,1.7637q-.0982,1.0782,1.4043,2.2539a29.5879,29.5879,0,0,0,3.8218,2.2207A6.44,6.44,0,0,1,110.3423,47.1357Z" transform="translate(-44.9053 -27.5105)"/><path class="a" d="M111.2568,38.2026a.5548.5548,0,0,1,.1631-.4082.5348.5348,0,0,1,.3921-.1631.5076.5076,0,0,1,.3755.147.6184.6184,0,0,1,.18.3428,2.0157,2.0157,0,0,0,.0981.3755q.0982.3105.2779.833t.31,1.0127q.3259,1.1433.8819,3.7724t.8491,3.7725a18.1109,18.1109,0,0,0,.7842,2.3516,1.8879,1.8879,0,0,0,.5224.7837c.0435,0,.0982-.0435.1631-.13a15.8819,15.8819,0,0,0,1.1108-3.4624q.6527-2.7436.8165-3.2334a1.5522,1.5522,0,0,0,.0815-.2778q.0491-.2118.082-.31a1.13,1.13,0,0,1,.1631-.3267.9707.9707,0,0,1,1.3716-.3921,1.6843,1.6843,0,0,1,.3594.3267,2.7372,2.7372,0,0,1,.3921.686q.2607.5559.7509,1.8941,1.2416,3.3648,1.7315,4.3115a6.155,6.155,0,0,0,.6206,1.0454c.0649.0655.13.13.1958.1958h-.1309a.9548.9548,0,0,0,.229-.2612,14.8716,14.8716,0,0,0,.9146-2.3516q.13-.3588.5386-1.5351t.6206-1.78q.2124-.6035.5063-1.5679.2944-.9624.4575-1.747a19.8831,19.8831,0,0,0,.5879-3.1685v-.13c.0655-.37.1084-.6206.13-.7514a.9049.9049,0,0,0,.0327-.1958v0l.0982.2285c.0214.0439.0434.0874.0654.1308l.2285.1631a.5723.5723,0,0,0,.2612.0655.7294.7294,0,0,1-.5551-.2452.808.808,0,0,1-.2286-.5713.7564.7564,0,0,1,.18-.5063.8271.8271,0,0,1,.4409-.2778.9983.9983,0,0,1,.98.3593l-.1958-.1635a1.6044,1.6044,0,0,1,.5879.9145q.0652.3925.1309,1.0127v.0982a18.1139,18.1139,0,0,1-.49,3.5927q-.49,1.7637-2.4169,6.7935-.066.1311-.2447.6045t-.2451.6533c-.0439.12-.1142.2886-.2124.5064a5.4832,5.4832,0,0,1-.2939.5712,3.5326,3.5326,0,0,1-.31.441,3.2635,3.2635,0,0,1-.8169.7514,1.9054,1.9054,0,0,1-.9145.2285h-.13a2.0934,2.0934,0,0,1-1.4375-.7837,7.8467,7.8467,0,0,1-.9146-1.4047,48.534,48.534,0,0,1-1.7309-4.6055,18.4632,18.4632,0,0,0-.6533-1.7964,1.8014,1.8014,0,0,0-.1631-.3589l.0327.0322a.3857.3857,0,0,1,.0976.0655.36.36,0,0,0,.0982.0654.7177.7177,0,0,0,.2285.0327h.2617a105.5109,105.5109,0,0,1,.3262-.1958c0-.0215.0215-.0542.0654-.0981l.0327-.0327-.0327.0327q0,.0328-.1631.5224-.1962.5231-.8818,3.1358-.0659.2614-.2612,1.0776t-.294,1.1758a8.2,8.2,0,0,1-.3266.9145,3.6,3.6,0,0,1-.523.9146,2.0572,2.0572,0,0,1-.9795.6533,1.2234,1.2234,0,0,1-.3921.0654,1.5516,1.5516,0,0,1-.7514-.1958,2.9617,2.9617,0,0,1-1.1431-1.6,17.9769,17.9769,0,0,1-.7837-2.5806q-.2945-1.2408-.7842-3.8867t-.7509-3.7232q-.0983-.49-.3921-1.4375A3.9623,3.9623,0,0,1,111.2568,38.2026Z" transform="translate(-44.9053 -27.5105)"/><path class="a" d="M143.396,43.6411a.3133.3133,0,0,1,.1309-.5879.19.19,0,0,0-.1309.065l-.0654.0654v-.0327a2.2239,2.2239,0,0,0,.0327-.3594v-.0977a6.98,6.98,0,0,0-.0977-1.143,2.34,2.34,0,0,0-.2939-1.0127,4.672,4.672,0,0,0-2.2051-1.437,7.4381,7.4381,0,0,0-3.2168-.4575,5.2839,5.2839,0,0,0-2.4824.6533,4.8194,4.8194,0,0,0-1.8618,2.8091,9.6586,9.6586,0,0,0-.2613,4.3437,7.2817,7.2817,0,0,0,1.8291,3.8867,3.7249,3.7249,0,0,0,2.58,1.0782,5.045,5.045,0,0,0,3.5278-1.3394,7.56,7.56,0,0,0,1.6656-2.2207,6.6908,6.6908,0,0,0,.686-2.1558,5.109,5.109,0,0,0,.0327-.5551,4.5066,4.5066,0,0,0-.0981-.9473,4.893,4.893,0,0,0-.49-1.437,5.8119,5.8119,0,0,0-.98-1.4048q-.1963-.1626-.4576-.3921a.4893.4893,0,0,1-.1631-.1958q-.1311-.2607-.2612-.5225a.1313.1313,0,0,1-.0327-.0981.2022.2022,0,0,1,.2285-.2285c.2173.022.4248.0439.6206.0654a.4659.4659,0,0,1,.2613.0654q.3258.2286.5878.4244a6.7332,6.7332,0,0,1,1.47,1.47,6.4458,6.4458,0,0,1,.8818,1.8291,5.9249,5.9249,0,0,1,.1963,1.5024,5.3805,5.3805,0,0,1-.0327.5879,8.0951,8.0951,0,0,1-.8164,2.8091,8.711,8.711,0,0,1-2.1558,2.8091,6.654,6.654,0,0,1-4.7685,1.6655,5.3588,5.3588,0,0,1-3.6255-1.7309,8.8185,8.8185,0,0,1-2.2212-4.7359,11.1482,11.1482,0,0,1,.2939-5.03,6.1832,6.1832,0,0,1,2.5152-3.7231,6.8454,6.8454,0,0,1,3.2334-.85h.1958a9.212,9.212,0,0,1,3.7236.7842,5.1777,5.1777,0,0,1,2.5474,2.0249,3.3357,3.3357,0,0,1,.3593,1.5678,6.6,6.6,0,0,1-.13,1.4043,1.6415,1.6415,0,0,1-.1636.5225.4142.4142,0,0,1-.1958.229A.3691.3691,0,0,1,143.396,43.6411Z" transform="translate(-44.9053 -27.5105)"/><path class="a" d="M157.2446,38.1538v.3916a2.8382,2.8382,0,0,1-.0981.7515q-.0981.4248-.2285.8491-.1641.4578-.3921.9473a9.8915,9.8915,0,0,1-.4571.98,11.6441,11.6441,0,0,1-1.5351,2.5147,4.51,4.51,0,0,1-1.7964,1.47q.1626,3.4621.1958,3.854a10.8438,10.8438,0,0,0,.2285,1.47v.8492c-.022.0874-.0434.1748-.0649.2612a.6989.6989,0,0,1-.7188.5879.3658.3658,0,0,1-.1631-.0327.7616.7616,0,0,1-.2939-.0977.9742.9742,0,0,1-.1309-.0981.36.36,0,0,1-.0654-.0982.2427.2427,0,0,1-.0327-.0976,1.1822,1.1822,0,0,1-.0977-.3594c-.0219,0-.0439-.07-.0654-.2124s-.0439-.2554-.0654-.3428v-.0981a15.5037,15.5037,0,0,1-.1309-1.6328q-.0323-1.34.0654-3.7564a3.6084,3.6084,0,0,1-1.3388-.4575,7.0755,7.0755,0,0,1-2.2212-2.417,8.525,8.525,0,0,1-1.1758-3.3311,6.487,6.487,0,0,1,.0654-2.5478.0949.0949,0,0,0,.0328-.0654.5232.5232,0,0,1,.5224-.294.59.59,0,0,1,.3267.1636q.0323.0651.0654.13a1.7948,1.7948,0,0,1,.0977.4248q.0321.13.0981.5385a5.5919,5.5919,0,0,0,.1309.6372q.2607,1.0774.5879,2.0577v.0981a.2544.2544,0,0,1-.1636.2612H148.23a8.5249,8.5249,0,0,0,1.143,1.8619,5.06,5.06,0,0,0,1.3716,1.2412,1.6729,1.6729,0,0,0,.7842.2285.8673.8673,0,0,1,.1958-.294.477.477,0,0,1,.294-.0981h.0654a.583.583,0,0,1,.2612.0654.0966.0966,0,0,1,.0654.0327,4.3719,4.3719,0,0,0,.8492-.9145,11.53,11.53,0,0,0,1.2412-2.2212q.2277-.49.3921-.9473a4.6673,4.6673,0,0,0,.2939-.8164,3.73,3.73,0,0,0,.2612-.7187,1.3339,1.3339,0,0,0,.0655-.4243v-.294a.6123.6123,0,0,1-.0327-.1963.7446.7446,0,0,1,.2124-.5224.6681.6681,0,0,1,.5058-.2286.6484.6484,0,0,1,.294.0655.69.69,0,0,1,.3266.2285.8531.8531,0,0,1,.2779.2778A1.0026,1.0026,0,0,1,157.2446,38.1538Z" transform="translate(-44.9053 -27.5105)"/><path class="b" d="M162.79,44.7715a3.9571,3.9571,0,0,1-1.5712,2.2666,3.8845,3.8845,0,0,1-1.2227.5859l-.2466-.497a2.845,2.845,0,0,0,1.9907-1.75c-.0991-.0088-.14-.0118-.1245-.0074a.9226.9226,0,0,1-.6235-1.08.94.94,0,0,1,.4346-.5815.8566.8566,0,0,1,.6879-.1079.9238.9238,0,0,1,.6753,1.1709Z" transform="translate(-44.9053 -27.5105)"/><path class="b" d="M168.8179,55.5918a1.8843,1.8843,0,0,1-.4385.9736,2.2341,2.2341,0,0,1-.814.67,2.7213,2.7213,0,0,1-.7285.2612,3.3786,3.3786,0,0,1-1.5146-.0254c-.0635-.0171-.127-.0342-.19-.0508a4.8233,4.8233,0,0,1-1.0976-.4463,3.9077,3.9077,0,0,1-.7369-.7553c-.1274-.1529-.2485-.3033-.3593-.4517q-.14-.24-.2613-.45a1.8856,1.8856,0,0,1-.1142-.2334c-.0117-.02-.023-.04-.0342-.06a2.5991,2.5991,0,0,1-.0962-.685c.0044-.0156.0107-.0391.019-.0713a1.081,1.081,0,0,1,.1368-.3184.1563.1563,0,0,1,.167-.0566.1642.1642,0,0,1,.1054.0791.8807.8807,0,0,0,.1206.21c.0122.02.024.0405.0362.0595a2.3416,2.3416,0,0,0,.2656.4278l.0171.0293c.0342.0595.0693.12.1035.18.085.1246.17.2481.2559.3726a3.5009,3.5009,0,0,0,.332.3682,2.58,2.58,0,0,0,.5434.5258,3.1539,3.1539,0,0,0,.8858.3892l.0947.0254a2.8109,2.8109,0,0,0,1.1279.0488,2.41,2.41,0,0,0,.5484-.1572,1.3608,1.3608,0,0,0,.5727-.43,1.1415,1.1415,0,0,0,.2505-.4658c.0088-.0318.0166-.0625.0254-.0947a1.17,1.17,0,0,0-.43-.9522l-1.34-1.145c-.3047-.2505-.5352-.4517-.6885-.603a2.9983,2.9983,0,0,1-.4512-.59,1.6688,1.6688,0,0,1-.249-.7265,1.5327,1.5327,0,0,1,.3565-1.045,2.8371,2.8371,0,0,1,.9292-.8164,3.2063,3.2063,0,0,1,1.708-.5068,1.5326,1.5326,0,0,1,1.0307.5049.4016.4016,0,0,0,.0757.0967c.0088-.0313.0181-.0674.0288-.1065a.2492.2492,0,0,0,.0049-.1133l.0191-.0713a.3063.3063,0,0,1,.1518-.1865.3015.3015,0,0,1,.2383-.0381.2849.2849,0,0,1,.2324.2652,4.2443,4.2443,0,0,1-.1138.8061q-.0344.22-.2109.8819c-.0254.0947-.0508.19-.0762.2841a.7074.7074,0,0,1-.02.1719l-.0068.0239-.0059.0235-.0068.0239-.0127.0469-.0059.0239a.3749.3749,0,0,1-.7-.0356l-.018-.03a.2027.2027,0,0,0-.0044-.0772,2.522,2.522,0,0,1,.0224-.2724,2.0515,2.0515,0,0,1,.0328-.22,1.3132,1.3132,0,0,0-.2207-.9726.67.67,0,0,0-.4834-.18,2.13,2.13,0,0,0-1.22.3833,2.3306,2.3306,0,0,0-.7173.5938.7989.7989,0,0,0-.186.5083q.0154.41,1.0825,1.3554,1.3506,1.1984,1.3457,1.2222A1.8389,1.8389,0,0,1,168.8179,55.5918Z" transform="translate(-44.9053 -27.5105)"/><path class="c" d="M176.9424,38.7578c-.01.2651-.13.4077-.3589.4277a.3923.3923,0,0,1-.48-.4038,7.4721,7.4721,0,0,0-.5053-2.3813c-.0777-.125-.1353-.2188-.1734-.2822l-.0532-.0454.0488-.0044a.4276.4276,0,0,0,.2012.0327c.0649-.0059.1143-.01.1475-.0127a.852.852,0,0,0,.2568-.1724.514.514,0,0,0,.15-.26.1984.1984,0,0,0,.0366-.1519l-.0044-.0488-.0044-.05.0044.05.0044.0488c.0059.0664.0112.1309.0171.1963a6.0006,6.0006,0,0,0-.0195,1.1914q.0439.7888.1694,1.9394.126,1.1537.29,2.1778.1641,1.0261.3711,2.542t.3335,2.3974a34.0017,34.0017,0,0,0,.564,3.6143.9117.9117,0,0,0,.0752.2915l-.0537-.0454c-.0391-.0625-.0781-.1255-.1152-.188a.622.622,0,0,0-.1563-.0855.6117.6117,0,0,0-.1562-.0859.776.776,0,0,0-.3033-.0718l-.25-.0283c-.1284.0444-.24.0879-.3354.1289a.6039.6039,0,0,0-.2324.169.745.745,0,0,0-.13.2089c-.03.0362-.06.0723-.0894.1075l.0044.05a.3836.3836,0,0,1,.0357-.1529q.0014-.5434-.795-5.1294c-.07-.4218-.1811-1.0239-.3315-1.8022s-.2866-1.4854-.4077-2.1182-.2232-1.2256-.3047-1.78q-.6108-4.1544.3428-6.2686a4.7619,4.7619,0,0,1,2.6694-2.313,9.1415,9.1415,0,0,1,3.4585-.6489,7.903,7.903,0,0,1,3.1558.4165A4.7568,4.7568,0,0,1,186.42,32.78a10.73,10.73,0,0,1,.9888,3.3794,7.5159,7.5159,0,0,1-.2412,4.0312,5.7942,5.7942,0,0,1-2.0987,2.61,13.1186,13.1186,0,0,1-2.6977,1.4238,6.8838,6.8838,0,0,1-1.7876.503c-.0982.0083-.1963.017-.2949.0258a8.0434,8.0434,0,0,1-.8887.0284,4.6761,4.6761,0,0,1-.6113-.1944,1.1917,1.1917,0,0,1-.7608-.7749l-.0176-.1963c-.0029-.0322-.0053-.0654-.0083-.0986a1.2517,1.2517,0,0,1,.271-.8652,1.318,1.318,0,0,1,.3223-.2759,3.9871,3.9871,0,0,1,.6089-.4,13.01,13.01,0,0,1,1.4307-.62,12.69,12.69,0,0,1,4.4775-.8868,5.0615,5.0615,0,0,1,3.355.9937,5.3154,5.3154,0,0,1,1.9887,3.49,7.8527,7.8527,0,0,1-.372,4.2412,6.1188,6.1188,0,0,1-2.8589,2.9732,12.69,12.69,0,0,1-1.4629.82,13.6069,13.6069,0,0,1-2.7578.7373,6.5039,6.5039,0,0,1-.7818.1177q-.4921.0432-1.0356.0415a8.1288,8.1288,0,0,1-2.62-.5137.3994.3994,0,0,0-.1514-.0371,4.6725,4.6725,0,0,1-1.8745-1.6182l.0576.0948a4.0207,4.0207,0,0,1-.4824-.7012,4.9121,4.9121,0,0,1-.3389-.7622c-.0053-.0654-.0112-.1309-.0171-.1963a.8432.8432,0,0,1,.5616-.9409l.0449-.0527.0488-.0044a.1689.1689,0,0,1,.1187-.0606.1714.1714,0,0,1,.1274.0391l-.0493.0044-.0982.0083c.0318-.003.065-.0059.0982-.0083a.8818.8818,0,0,1,.9936.6054,1.8294,1.8294,0,0,0,.1817.3809,1.2969,1.2969,0,0,0,.2759.3223l-.107-.0889a2.577,2.577,0,0,0,1.2842.53.1968.1968,0,0,0,.1519.0371,5.3767,5.3767,0,0,0,1.8076.2866q.594-.0015,1.1836-.0532c.0981-.0088.1963-.0171.2944-.0259a12.0949,12.0949,0,0,0,2.1362-.4844,6.8771,6.8771,0,0,0,1.3946-.4682,3.7381,3.7381,0,0,0,1.8725-1.7984,5.4017,5.4017,0,0,0,.377-3.0517,3.65,3.65,0,0,0-1.1934-2.3223,3.1679,3.1679,0,0,0-2.12-.458,10.4905,10.4905,0,0,0-3.6958.769,11.6684,11.6684,0,0,0-1.1851.5987,1.2885,1.2885,0,0,0-.2817.1723l-.0044-.0478.09-.1074a.1444.1444,0,0,0,.0406-.1031.6222.6222,0,0,0,.126-.2588l-.0879-.437a.2064.2064,0,0,1,.062.1421.9408.9408,0,0,0-.0752-.2895,1.6461,1.6461,0,0,0-.2178-.2281c-.0361-.0292-.0894-.0747-.1606-.1357l-.0489.0044-.0044-.0488.0044.0488a3.229,3.229,0,0,0,.545.0024c.0322-.0024.0654-.0053.0986-.0083a8.6781,8.6781,0,0,0,1.3086-.3125q3.12-1.1147,3.7651-2.8061a6.1236,6.1236,0,0,0,.18-3.0347,10.3433,10.3433,0,0,0-.8921-2.8437,2.967,2.967,0,0,0-1.4282-1.6079,7.227,7.227,0,0,0-2.3438-.1905,8.3273,8.3273,0,0,0-2.78.49A2.6086,2.6086,0,0,0,176.59,33.59q-.7074,1.547-.1962,5.1163.1207.8319.2773,1.7587t.3818,2.0953c.15.7788.26,1.3813.3311,1.8032q.8628,4.7775.8828,5.5674a1.8611,1.8611,0,0,1-.0469.5981,1.0812,1.0812,0,0,1-.1577.459,1.0951,1.0951,0,0,1-1.0469.4878.8954.8954,0,0,1-.726-.3818.7287.7287,0,0,1-.2266-.3267,2.7921,2.7921,0,0,1-.2524-.6216,38.9238,38.9238,0,0,1-.545-3.9624q-.0688-.7866-.2778-2.897-.2109-2.11-.3086-3.2412a18.7738,18.7738,0,0,1-.06-4.6484,1.9582,1.9582,0,0,1,.0766-.2544.7932.7932,0,0,1,.4121-.3823.7454.7454,0,0,1,.9019.1186,1.1385,1.1385,0,0,1,.1772.3311.3969.3969,0,0,1,.062.144q.0871.4365.1758.875A8.0174,8.0174,0,0,1,176.9424,38.7578Z" transform="translate(-44.9053 -27.5105)"/><path class="c" d="M206.8662,55.9355a1.265,1.265,0,0,1-.0771,1.0342,1.3546,1.3546,0,0,1-.8428.791,3.1078,3.1078,0,0,1-.5894.1509,4.9911,4.9911,0,0,1-.6274.0474,11.544,11.544,0,0,1-1.4487.0708,23.5129,23.5129,0,0,1-2.5332-.0132q-1.4334-.0769-2.7544-.2383a24.1792,24.1792,0,0,1-2.4722-.5024,6.18,6.18,0,0,1-2.3638-.9863,2.73,2.73,0,0,1-.9883-2.06,9.91,9.91,0,0,1,.2325-2.3062q.1685-.9726,1.1826-5.1718,1.2663-5.46,1.5312-7.2163.1861-1.1192.4126-2.7569t.33-2.0713c.0083-.0649.0142-.1137.0186-.1469a1.8787,1.8787,0,0,1,.2182-.57c.0323.0044.0518-.018.0581-.0669a.271.271,0,0,1,.0391-.12.4106.4106,0,0,1,.1626-.1045c.0864-.039.2-.0825.3384-.1318a1.01,1.01,0,0,1,.3242-.01,1.02,1.02,0,0,1,.3135.0879,2.1,2.1,0,0,1,.272.207.4255.4255,0,0,1,.1069.1377,1.9829,1.9829,0,0,1,.05.2046,3.182,3.182,0,0,1,.1235.6118c-.0044.0332-.01.0821-.0185.1465q-.2182,3.0051-.4961,4.8589-.2228,1.8113-1.4161,7.479-.7859,3.9779-.9707,5.0733a4.8694,4.8694,0,0,0-.0918,1.5537c-.0039.0332-.0083.0659-.0122.0981a3.9066,3.9066,0,0,0,1.2486.3521,21.9125,21.9125,0,0,0,2.24.374q1.2744.1568,2.5527.2641,1.3272.1135,2.41.1963.6979-.0132,1.1992-.0512a1.074,1.074,0,0,0,.3477-.0069,1.8215,1.8215,0,0,0,.2578-.0678,1.439,1.439,0,0,1,.5493-.0318,1.4136,1.4136,0,0,1,.6187.2246,1.4626,1.4626,0,0,1,.4423.4522A.81.81,0,0,1,206.8662,55.9355Z" transform="translate(-44.9053 -27.5105)"/><path class="c" d="M221.2183,36.9146a.4731.4731,0,0,1,.1035-.9034.2845.2845,0,0,0-.1861.1192l-.0878.1079-.0049-.05a3.3681,3.3681,0,0,0-.0074-.544l-.0156-.1474a10.53,10.53,0,0,0-.3276-1.7,3.5183,3.5183,0,0,0-.6016-1.4751,7.0511,7.0511,0,0,0-3.5376-1.81,11.2424,11.2424,0,0,0-4.9038-.18,7.9717,7.9717,0,0,0-3.625,1.3736,7.2807,7.2807,0,0,0-2.3525,4.5117,14.585,14.585,0,0,0,.2929,6.5644,11.0026,11.0026,0,0,0,3.3609,5.5493,5.6174,5.6174,0,0,0,4.0454,1.211,7.6124,7.6124,0,0,0,5.0859-2.5669,11.4331,11.4331,0,0,0,2.1509-3.6,10.0791,10.0791,0,0,0,.69-3.3447,7.7779,7.7779,0,0,0-.0381-.84,6.8668,6.8668,0,0,0-.2969-1.4077,7.3805,7.3805,0,0,0-.9634-2.08,8.7481,8.7481,0,0,0-1.6929-1.9551c-.2133-.143-.4628-.3144-.7485-.5166a.7384.7384,0,0,1-.2759-.268q-.238-.3722-.4751-.7437a.1967.1967,0,0,1-.0639-.1416.3049.3049,0,0,1,.3066-.38c.33-.001.645-.0014.9424,0a.6985.6985,0,0,1,.4028.0571c.35.1944.6675.3765.95.545a10.1243,10.1243,0,0,1,2.44,1.976,9.7574,9.7574,0,0,1,1.6128,2.607,8.949,8.949,0,0,1,.5317,2.2251,8.1619,8.1619,0,0,1,.0435.8877,12.2164,12.2164,0,0,1-.7827,4.3486,13.1494,13.1494,0,0,1-2.794,4.5581,10.0528,10.0528,0,0,1-6.8989,3.2544,8.0946,8.0946,0,0,1-5.7178-2.0283,13.3213,13.3213,0,0,1-4.0835-6.7617,16.843,16.843,0,0,1-.352-7.6,9.3457,9.3457,0,0,1,3.1889-5.9888,10.3441,10.3441,0,0,1,4.7227-1.7856l.2944-.0308a13.9206,13.9206,0,0,1,5.7153.5889,7.822,7.822,0,0,1,4.1456,2.64,5.04,5.04,0,0,1,.7871,2.2979,9.9774,9.9774,0,0,1,.0258,2.13,2.4916,2.4916,0,0,1-.163.81.6237.6237,0,0,1-.2583.374A.5523.5523,0,0,1,221.2183,36.9146Z" transform="translate(-44.9053 -27.5105)"/><path class="c" d="M243.6714,51.12q.0366.69.1279,1.9683.0909,1.28.12,1.8223a18.0313,18.0313,0,0,1-.0986,1.8813,2.0734,2.0734,0,0,1-.01.2725.4179.4179,0,0,1-.0625.2246,1.2391,1.2391,0,0,1-.3213.9306,1.68,1.68,0,0,1-.8867.5157,1.4955,1.4955,0,0,1-1.7515-1.3892l-.0029-.05q-.0074-.1479-.0157-.2959l.0728-.4971a10.8266,10.8266,0,0,0,.0234-1.4331c-.0151-.2959-.0342-.6562-.0566-1.084a7.1718,7.1718,0,0,1-.8428.8833,11.2748,11.2748,0,0,1-4.5942,2.8086q-3.9.9962-6.4546-.6489a6.8108,6.8108,0,0,1-2.89-4.2441,15.5527,15.5527,0,0,1,.3394-7.6729,19.7579,19.7579,0,0,1,3.1313-6.6836,11.354,11.354,0,0,1,4.897-4.1089,7.5317,7.5317,0,0,1,4.3291-.3261,3.4007,3.4007,0,0,1,2.1485,1.4179,1.2633,1.2633,0,0,1,.1088,1.1314,1.6359,1.6359,0,0,1-.8505.7358.1989.1989,0,0,1-.1451.0576q-.3947.0206-.417-.4238a.4716.4716,0,0,1,.13-.3516c.1582-.1069.2364-.1933.2329-.26a.3866.3866,0,0,0-.0571-.145,2.4737,2.4737,0,0,0-1.4077-.47A6.5962,6.5962,0,0,0,237.08,35.61a6.1,6.1,0,0,0-2.0015.4516,9.57,9.57,0,0,0-4.1846,3.5528,17.32,17.32,0,0,0-2.8247,5.9521,12.9109,12.9109,0,0,0-.24,6.729,4.8918,4.8918,0,0,0,2.1357,3.0493,5.8468,5.8468,0,0,0,4.8057.2906,9.2363,9.2363,0,0,0,3.728-2.3687,7.4916,7.4916,0,0,0,2.06-3.12,2.246,2.246,0,0,0,.1689-.5528c.0181-.89.0264-1.3671.023-1.4336a.534.534,0,0,0-.1138-.29,3.0847,3.0847,0,0,0-1.3911-1.0884,11.0762,11.0762,0,0,0-2.2632-.7939,11.3889,11.3889,0,0,0-2.728-.2036l-.9849.0517a.384.384,0,0,1-.2485-.0361,1.0867,1.0867,0,0,1-.3472-.0317.9113.9113,0,0,1-.7412-.9483.8928.8928,0,0,1,.4951-.915,1.95,1.95,0,0,1,.3863-.169c.0654-.0034.18-.01.3447-.018a.6932.6932,0,0,1,.293-.0645q.1962-.01.8828-.1206c.457-.0732.8154-.1328,1.0776-.1792q3.33-.5193,4.3652-.5752a10.5382,10.5382,0,0,1,1.1846-.0122,2.1834,2.1834,0,0,1,1.4771.8608,7.4448,7.4448,0,0,1,.9663,3.357q.0417.7881.1474,2.3388T243.6714,51.12Zm-3.3374-6.1963c.0674.0288.1343.0586.2021.0884a.145.145,0,0,0-.0542-.0962C240.4487,44.9175,240.3994,44.92,240.334,44.9233Z" transform="translate(-44.9053 -27.5105)"/></svg>