<svg xmlns="http://www.w3.org/2000/svg" viewBox="0 0 859.73 764.86"><path d="M90.14,197.4a24.2,24.2,0,0,1,48.26-3.09c.74,6.84,17.34,48.06,30.9,97.79,27.35,98.65,49,229.08,76.91,334.61,11.56,43.44,23.12,78.62,34.68,103.48,10.62,22.88,21.58,33.6,23,34.25,2.11,1.09-.67,1-.18.81,0,0,2.6-1,6.95-6.34,15.9-19.53,32.09-85.88,49.13-152.66C373.13,551.46,384.87,500.1,396,462.79c2.89-9.53,4.95-18,7.79-26.41A72.5,72.5,0,0,1,410,421.93a44.17,44.17,0,0,1,21.67-19.81c13.91-6.11,30.52-2.21,39.26,3a54.88,54.88,0,0,1,16.14,14.81c7.22,9.23,12.13,18.95,17.33,30.05,10.78,22.94,21.52,51.72,33.23,83.8,24.13,65.8,50.15,140.51,76.58,191.28,10.36,21,20,36.9,28,46.24a43.46,43.46,0,0,0,8.06,7.74c1.1.72-3.25-.22-1.44,0-.25,0-4.77.62-4.11.22,1.23-.77,5.06-3.92,10.12-11.11,10.93-16.21,24.15-55.54,40.86-104,31.09-90.74,71.18-197,93.68-292.93a819.55,819.55,0,0,0,25.11-141,48,48,0,0,1,.71-4.91c2.74-13.83,5-25.46,6.33-34,.62-4,1-7.14,1.11-9v-1.3s.52,3.54.26,2.15l3.64,10.42c-.71-1.33,4.67,6.36,3.19,4.64-2.31-2.69,13.92,9.24,9.84,7.38s15.06,2.57,11.69,2.57a35.31,35.31,0,0,1-7.32-69.87c13.94-2.89,33.72,4.33,42.66,15.16L878.34,146c18.51,12.07,22.21,28.06,25.53,41.73s4.78,28,5.88,43.47c.1,1.65.15,3.31.09,5a826.1,826.1,0,0,1-20.68,158.45c-28.89,105.69-73.68,212.73-108,300.9-18.19,47-31.9,89.92-57.69,123.29-9.75,13.18-21.38,24.82-35.54,32.93a80.92,80.92,0,0,1-46.66,10.43c-26.26-1.37-47.47-17.77-63.06-35.3S550,788.17,537.88,764.6c-29.75-61.09-54.31-137.92-76.69-203.83-10.81-31.79-20.5-59.66-28.58-78.65a131.72,131.72,0,0,0-8.19-16.7c-.19-.29.72.82.29.32s3.25,3,2.15,2.09a28.35,28.35,0,0,1,3.63,2.62c-1.23-.75,6.22,3,4.46,2.24-2.73-1.11,13.87,2.67,10,2.37s16-2.34,12.1-1.23c-2.26.68,9.45-4.33,7.39-3.11-3,1.69,8.24-6.69,6.69-5.13s3.51-4.33,2.89-3.54c-.78,1.15.87-1.44.86-1.44s-.28.62-.61,1.44c-1.59,4-4.16,12.43-7.7,23-11,32.8-24,83.81-38.69,138.94C411.27,689,402,758.19,365.06,803.32,353.84,817,339.65,828,322.7,832.75A69.61,69.61,0,0,1,272.26,827c-26.61-15.71-39.64-40.81-51.75-70.54-12.59-30.91-23.34-69.19-34-114.87-25.77-110.05-44.46-240.91-67.69-336.44-5.78-23.36-12.48-44.72-18.09-62.91C95.4,224.74,90.43,212,90.14,197.4Z" transform="translate(-70.14 -117.57)" style="fill:#14b8a6;stroke:#14b8a6;stroke-miterlimit:10;stroke-width:40px"/></svg>