<svg xmlns="http://www.w3.org/2000/svg" width="287.3306" height="34.1465" viewBox="0 0 287.3306 34.1465"><defs><style>.a{fill:#1e555c;stroke:#1e555c;}.a,.b{stroke-miterlimit:10;}.b{fill:#f15152;stroke:#f15152;stroke-width:2px;}</style></defs><path class="a" d="M45.45,45.3125a.8739.8739,0,0,1,.2573-.6436.8432.8432,0,0,1,.6177-.2573.8025.8025,0,0,1,.5923.232.9791.9791,0,0,1,.2832.5405,3.18,3.18,0,0,0,.1543.5918q.1545.49.4375,1.313t.4893,1.5957q.5133,1.8024,1.39,5.9458T51.01,60.5767a28.4936,28.4936,0,0,0,1.2353,3.7065,2.9743,2.9743,0,0,0,.8237,1.2354q.1026,0,.2574-.2056.514-.6687,1.7505-5.457,1.029-4.3244,1.2871-5.0967a2.4242,2.4242,0,0,0,.1284-.4375c.0517-.2227.0942-.3863.1289-.4893a1.8062,1.8062,0,0,1,.2573-.5146A1.5306,1.5306,0,0,1,59.0405,52.7a2.6631,2.6631,0,0,1,.5664.5146,4.3221,4.3221,0,0,1,.6177,1.0811q.4116.876,1.1841,2.9858,1.9555,5.3028,2.7285,6.7954a9.7338,9.7338,0,0,0,.978,1.6475l.3091.3091h-.206a1.5162,1.5162,0,0,0,.36-.4121A23.3563,23.3563,0,0,0,67.02,61.915q.2051-.5661.85-2.4194.643-1.8537.9781-2.8057t.7978-2.4711q.4637-1.5177.7207-2.7544a31.2949,31.2949,0,0,0,.9268-4.9937v-.2056q.1545-.8752.206-1.184a1.435,1.435,0,0,0,.0513-.3091v0l.1543.36c.0337.0694.0683.1377.103.2061l.36.2573a.9034.9034,0,0,0,.4121.103,1.1521,1.1521,0,0,1-.8755-.3862,1.2778,1.2778,0,0,1-.36-.9009,1.1956,1.1956,0,0,1,.2832-.7978,1.3081,1.3081,0,0,1,.6949-.4375,1.5732,1.5732,0,0,1,1.5444.5664l-.3086-.2578a2.5278,2.5278,0,0,1,.9268,1.4414q.1025.6182.2055,1.5962v.1543a28.5131,28.5131,0,0,1-.7719,5.663q-.772,2.78-3.81,10.7081-.104.2058-.3862.9521t-.3863,1.03q-.1032.2835-.3344.7978a8.58,8.58,0,0,1-.4634.9009,5.497,5.497,0,0,1-.4888.6948,5.116,5.116,0,0,1-1.2871,1.1841,2.9994,2.9994,0,0,1-1.4414.36h-.2061A3.2986,3.2986,0,0,1,62.85,67.7324a12.3349,12.3349,0,0,1-1.4414-2.2138A76.0718,76.0718,0,0,1,58.68,58.26a29.1429,29.1429,0,0,0-1.03-2.8311,2.8645,2.8645,0,0,0-.2573-.5664l.0517.0513a.6317.6317,0,0,1,.1543.103.561.561,0,0,0,.1543.103,1.131,1.131,0,0,0,.36.0513h.4121a15963457822960.111,15963457822960.111,0,0,1,.5146-.3086c0-.0337.0337-.0854.1031-.1543l.0512-.0517-.0512.0517q0,.0513-.2574.8237-.309.8241-1.39,4.9419-.1039.4124-.4116,1.6988t-.4634,1.8535a12.9122,12.9122,0,0,1-.5151,1.4414,5.669,5.669,0,0,1-.8238,1.4414,3.2407,3.2407,0,0,1-1.5444,1.03,1.9363,1.9363,0,0,1-.6177.103,2.4384,2.4384,0,0,1-1.1841-.3091A4.6645,4.6645,0,0,1,50.1343,65.21a28.3465,28.3465,0,0,1-1.2354-4.0669q-.4637-1.9563-1.2358-6.1265T46.48,49.1479q-.1545-.7719-.6182-2.2651A6.2408,6.2408,0,0,1,45.45,45.3125Z" transform="translate(-44.9497 -42.649)"/><path class="a" d="M96.1064,53.8843a.4939.4939,0,0,1,.2061-.9268.2968.2968,0,0,0-.2061.103l-.103.1031v-.0518a3.533,3.533,0,0,0,.0518-.5664v-.1543A10.9526,10.9526,0,0,0,95.9,50.5894a3.6789,3.6789,0,0,0-.4634-1.5957,7.3639,7.3639,0,0,0-3.4746-2.2652,11.731,11.731,0,0,0-5.0708-.7207,8.3281,8.3281,0,0,0-3.9126,1.0293,7.6012,7.6012,0,0,0-2.9346,4.4273,15.2247,15.2247,0,0,0-.4116,6.8471,11.4774,11.4774,0,0,0,2.8828,6.126,5.87,5.87,0,0,0,4.0669,1.6992,7.9527,7.9527,0,0,0,5.56-2.1108,11.92,11.92,0,0,0,2.6255-3.501,10.5474,10.5474,0,0,0,1.081-3.3975,8.09,8.09,0,0,0,.0513-.875,7.1063,7.1063,0,0,0-.1543-1.4931,7.7265,7.7265,0,0,0-.772-2.2652A9.1565,9.1565,0,0,0,93.43,50.28q-.3091-.2563-.7207-.6177a.7728.7728,0,0,1-.2578-.3086q-.2058-.4116-.4116-.8237a.2072.2072,0,0,1-.0518-.1548.3189.3189,0,0,1,.36-.36q.5142.0521.9786.1031a.7338.7338,0,0,1,.4116.103q.5142.361.9267.6694a10.6138,10.6138,0,0,1,2.3164,2.3164,10.1776,10.1776,0,0,1,1.39,2.8828,9.3514,9.3514,0,0,1,.3091,2.3682,8.5423,8.5423,0,0,1-.0518.9268,12.7368,12.7368,0,0,1-1.2871,4.4272,13.719,13.719,0,0,1-3.3975,4.4273,10.4886,10.4886,0,0,1-7.5161,2.6254,8.4508,8.4508,0,0,1-5.7143-2.728,13.9043,13.9043,0,0,1-3.501-7.4648,17.5762,17.5762,0,0,1,.4634-7.9282,9.7507,9.7507,0,0,1,3.9643-5.8687,10.7964,10.7964,0,0,1,5.0962-1.3384h.3091a14.5268,14.5268,0,0,1,5.8687,1.2354A8.1623,8.1623,0,0,1,96.93,47.9639a5.2652,5.2652,0,0,1,.5664,2.4712,10.3679,10.3679,0,0,1-.2061,2.2133,2.5921,2.5921,0,0,1-.2573.8238.6524.6524,0,0,1-.3091.36A.5787.5787,0,0,1,96.1064,53.8843Z" transform="translate(-44.9497 -42.649)"/><path class="a" d="M117.9336,45.2354v.6176a4.4744,4.4744,0,0,1-.1543,1.1841q-.1545.67-.36,1.3384-.2584.7221-.6176,1.4932a15.7783,15.7783,0,0,1-.7207,1.5444,18.3335,18.3335,0,0,1-2.42,3.9639,7.101,7.101,0,0,1-2.831,2.3168q.2563,5.4573.3086,6.0748a17.0339,17.0339,0,0,0,.36,2.3164v1.3383c-.0346.1377-.0688.2754-.103.4121a1.1487,1.1487,0,0,1-.1543.4117,1.1355,1.1355,0,0,1-.978.5151.58.58,0,0,1-.2573-.0518,1.2226,1.2226,0,0,1-.4634-.1542,1.5843,1.5843,0,0,1-.2061-.1543.5669.5669,0,0,1-.103-.1548.3848.3848,0,0,1-.0513-.1543,1.8619,1.8619,0,0,1-.1548-.5664c-.0341,0-.0688-.1109-.1025-.3345s-.0693-.4028-.103-.5405v-.1543a24.4425,24.4425,0,0,1-.2061-2.5742q-.0519-2.11.1031-5.92a5.7019,5.7019,0,0,1-2.1109-.7207,11.1558,11.1558,0,0,1-3.5005-3.8095,13.4324,13.4324,0,0,1-1.8535-5.251,10.24,10.24,0,0,1,.103-4.0156.15.15,0,0,0,.0518-.1026.824.824,0,0,1,.8232-.4634.93.93,0,0,1,.5152.2574c.0337.0693.0683.1377.103.206a2.7942,2.7942,0,0,1,.1543.669q.0505.2066.1543.85a8.8059,8.8059,0,0,0,.206,1.0039q.4118,1.6985.9268,3.2432v.1542a.4016.4016,0,0,1-.2573.4122h-.3091a13.4473,13.4473,0,0,0,1.8018,2.934,7.96,7.96,0,0,0,2.1621,1.9566,2.6334,2.6334,0,0,0,1.2358.36,1.3668,1.3668,0,0,1,.3086-.4633.75.75,0,0,1,.4634-.1543h.103a.9169.9169,0,0,1,.4116.1025.1527.1527,0,0,1,.1031.0518,6.9193,6.9193,0,0,0,1.3388-1.4414,18.1787,18.1787,0,0,0,1.9561-3.501q.36-.772.6177-1.4927a7.3018,7.3018,0,0,0,.4633-1.2871,5.8417,5.8417,0,0,0,.4117-1.1323,2.1136,2.1136,0,0,0,.103-.6695v-.4633a.9627.9627,0,0,1-.0513-.3091,1.1733,1.1733,0,0,1,.3345-.8233,1.0543,1.0543,0,0,1,.7978-.36,1.0266,1.0266,0,0,1,.4634.1025,1.0989,1.0989,0,0,1,.5151.36,1.3426,1.3426,0,0,1,.4375.438A1.5913,1.5913,0,0,1,117.9336,45.2354Z" transform="translate(-44.9497 -42.649)"/><path class="a" d="M130.186,65.8789a1.1989,1.1989,0,0,1,.772.3862,1.1369,1.1369,0,0,1,.3091.7979,1.1726,1.1726,0,0,1-.6177,1.081,2.7382,2.7382,0,0,1-.9267.36q-.1547.0513-.3091.103h-1.0811q-.7719,0-1.853-.0512-.7215,0-1.6987-.0518a5.2687,5.2687,0,0,1-2.2652,1.03,4.0128,4.0128,0,0,1-2.1626-.1543,2.3436,2.3436,0,0,1-1.2866-1.39,2.9821,2.9821,0,0,1-.1548-1.4414V66.6a1.5656,1.5656,0,0,1,.5152-.9263,1.9192,1.9192,0,0,1,.54-.309,1.72,1.72,0,0,1,.5918-.1031,3.823,3.823,0,0,1,.6177-.0512,2.44,2.44,0,0,1,.4633.0512,19.1581,19.1581,0,0,1,1.9566.1548,11.1416,11.1416,0,0,0,1.5957-6.0747q.0506-1.5447-.4116-7.4136a21.7169,21.7169,0,0,1,.0512-6.0229,6.8374,6.8374,0,0,1-2.4194-.2573,1.1507,1.1507,0,0,1-.4121-.2061,1.4847,1.4847,0,0,1-.4375-.7207.8275.8275,0,0,1,.0771-.6177.6119.6119,0,0,0,.1031-.1548.7787.7787,0,0,1,.309-.2573,1.8974,1.8974,0,0,1,.875-.2573.149.149,0,0,1,.1031-.0513.4607.4607,0,0,1,.4634.4116,16.5826,16.5826,0,0,0,1.853-.103,1.1582,1.1582,0,0,0,.4121-.206,1.1209,1.1209,0,0,0,.36-.1543,2.6618,2.6618,0,0,1,.5147-.0513,1.3755,1.3755,0,0,1,.9267.36,1.2344,1.2344,0,0,1,.2061.3086,1.1034,1.1034,0,0,1,.0513,1.0811.5021.5021,0,0,1-.1031.2578.5777.5777,0,0,0-.103.1543.3914.3914,0,0,0-.0513.1543,2.3675,2.3675,0,0,0-.309.6694,14.9145,14.9145,0,0,0-.1543,3.2432q.1024,1.5447.4116,4.6846t.3091,5.1484a16.0339,16.0339,0,0,1-1.03,6.332q.8753.052,1.5962.0513h1.1841Q129.928,65.8285,130.186,65.8789Z" transform="translate(-44.9497 -42.649)"/><path class="a" d="M147.998,59.3926a5.0386,5.0386,0,0,1,.9268,3.9638,5.16,5.16,0,0,1-2.2139,3.501,10.788,10.788,0,0,1-3.6035,1.5445,12.3649,12.3649,0,0,1-3.1919.4116,12.6843,12.6843,0,0,1-2.2651-.2061,9.5052,9.5052,0,0,1-3.1919-1.3384,8.6876,8.6876,0,0,1-1.8018-1.5444,6.6513,6.6513,0,0,1-.7719-1.03,7.6713,7.6713,0,0,1-.6182-1.1836c-.0342-.0688-.0688-.1372-.1025-.206q-.1546-.6687-.2578-1.3384V61.812a1.1791,1.1791,0,0,1,.206-.6689q.2571-.4116.5147-.7725a.3462.3462,0,0,1,.309-.1543.212.212,0,0,1,.1543.0513h.0518a2.8477,2.8477,0,0,0,.6177.4634,1.43,1.43,0,0,1,.5664.6176,4.5494,4.5494,0,0,0,.4116.8238.3516.3516,0,0,1,.103.2573q.205.4131.4121.7724a6.0563,6.0563,0,0,0,1.6988,1.8018,7.4613,7.4613,0,0,0,2.2651.9268,10.2571,10.2571,0,0,0,1.8018.2573,6.55,6.55,0,0,0,.8237.0513,10.3494,10.3494,0,0,0,1.8017-.1543,7.75,7.75,0,0,0,2.8316-1.0811,3.4912,3.4912,0,0,0,1.5957-2.0591,3.1851,3.1851,0,0,0-.669-2.42A7.7154,7.7154,0,0,0,143.519,58.26a44.3749,44.3749,0,0,1-6.435-3.6035q-3.45-2.4712-3.1919-5.4571a6.1953,6.1953,0,0,1,2.1626-4.2212,5.3624,5.3624,0,0,1,4.5815-1.4414,6.7647,6.7647,0,0,1,2.9859,1.1841l-.0513-.103a109.4051,109.4051,0,0,1,.103-.4121.1489.1489,0,0,0,.0513-.1026q.0506-.2051.4121-.3091a.4631.4631,0,0,1,.2056-.0512.47.47,0,0,1,.206.0512c.24.0694.3775.1543.4116.2574v.0517c.0342.0689.0684.1372.1031.2056a.4691.4691,0,0,1,.0517.206A7.0879,7.0879,0,0,0,145.27,45.57q.1547.799.2061,1.2613a6.7674,6.7674,0,0,1,.1543.8754,13.3593,13.3593,0,0,1,.36,1.9048,1.4044,1.4044,0,0,1-.1543.7207.922.922,0,0,1-.6176.5147h-.2061a.9013.9013,0,0,1-.6694-.2573l-.0513-.0513-.0518-.0518a1.2755,1.2755,0,0,1-.1543-.3086v-.103a.1452.1452,0,0,1-.0512-.103V49.92a11.0373,11.0373,0,0,0-.5664-2.1621,2.8974,2.8974,0,0,0-1.1582-1.39,4.6511,4.6511,0,0,0-1.982-.7207,3.2472,3.2472,0,0,0-2.7544.978,4.29,4.29,0,0,0-1.4155,2.78q-.1545,1.6992,2.2134,3.5522a46.5672,46.5672,0,0,0,6.0234,3.5A10.1484,10.1484,0,0,1,147.998,59.3926Z" transform="translate(-44.9497 -42.649)"/><path class="a" d="M149.439,45.3125a.8735.8735,0,0,1,.2573-.6436.843.843,0,0,1,.6177-.2573.8026.8026,0,0,1,.5923.232.98.98,0,0,1,.2832.5405,3.171,3.171,0,0,0,.1543.5918q.1545.49.4375,1.313t.4892,1.5957q.5135,1.8024,1.39,5.9458t1.3388,5.9463a28.4759,28.4759,0,0,0,1.2354,3.7065,2.9733,2.9733,0,0,0,.8237,1.2354q.1026,0,.2573-.2056.5142-.6687,1.75-5.457,1.0292-4.3244,1.2871-5.0967a2.4156,2.4156,0,0,0,.1284-.4375c.0518-.2227.0943-.3863.129-.4893a1.8011,1.8011,0,0,1,.2573-.5146A1.5305,1.5305,0,0,1,163.03,52.7a2.6679,2.6679,0,0,1,.5664.5146,4.3252,4.3252,0,0,1,.6177,1.0811q.4116.876,1.184,2.9858,1.9557,5.3028,2.7286,6.7954a9.7271,9.7271,0,0,0,.978,1.6475l.3091.3091h-.2061a1.5161,1.5161,0,0,0,.36-.4121,23.3671,23.3671,0,0,0,1.4414-3.7066q.205-.5661.85-2.4194.643-1.8537.978-2.8057t.7979-2.4711q.4635-1.5177.7207-2.7544a31.2835,31.2835,0,0,0,.9267-4.9937v-.2056q.1547-.8752.2061-1.184a1.435,1.435,0,0,0,.0513-.3091v0l.1542.36c.0337.0694.0684.1377.1031.2061l.36.2573a.9034.9034,0,0,0,.4121.103,1.1524,1.1524,0,0,1-.8755-.3862,1.2777,1.2777,0,0,1-.36-.9009,1.1951,1.1951,0,0,1,.2832-.7978,1.3078,1.3078,0,0,1,.6948-.4375,1.5734,1.5734,0,0,1,1.5445.5664l-.3086-.2578a2.5272,2.5272,0,0,1,.9267,1.4414q.1026.6182.2056,1.5962v.1543a28.5206,28.5206,0,0,1-.772,5.663q-.7719,2.78-3.81,10.7081-.1039.2058-.3862.9521t-.3862,1.03q-.1034.2835-.3345.7978a8.58,8.58,0,0,1-.4634.9009,5.5069,5.5069,0,0,1-.4887.6948,5.116,5.116,0,0,1-1.2871,1.1841,3,3,0,0,1-1.4415.36h-.206a3.2986,3.2986,0,0,1-2.2651-1.2354,12.34,12.34,0,0,1-1.4415-2.2138,76.1289,76.1289,0,0,1-2.7285-7.2588,29.1154,29.1154,0,0,0-1.03-2.8311,2.8531,2.8531,0,0,0-.2573-.5664l.0518.0513a.6357.6357,0,0,1,.1543.103.5594.5594,0,0,0,.1543.103,1.13,1.13,0,0,0,.36.0513h.4121a1750.9321,1750.9321,0,0,0,.5147-.3086c0-.0337.0337-.0854.103-.1543l.0513-.0517-.0513.0517q0,.0513-.2573.8237-.3091.8241-1.39,4.9419-.1041.4124-.4117,1.6988t-.4633,1.8535a12.9159,12.9159,0,0,1-.5152,1.4414,5.6659,5.6659,0,0,1-.8237,1.4414,3.2412,3.2412,0,0,1-1.5444,1.03,1.9368,1.9368,0,0,1-.6177.103,2.4381,2.4381,0,0,1-1.1841-.3091,4.6651,4.6651,0,0,1-1.8018-2.5224,28.3482,28.3482,0,0,1-1.2353-4.0669q-.4637-1.9563-1.2359-6.1265t-1.1835-5.8687q-.1546-.7719-.6182-2.2651A6.2408,6.2408,0,0,1,149.439,45.3125Z" transform="translate(-44.9497 -42.649)"/><path class="a" d="M200.0957,53.8843a.4939.4939,0,0,1,.2061-.9268.2966.2966,0,0,0-.2061.103l-.103.1031v-.0518a3.5321,3.5321,0,0,0,.0517-.5664v-.1543a10.9417,10.9417,0,0,0-.1548-1.8017,3.6805,3.6805,0,0,0-.4633-1.5957,7.365,7.365,0,0,0-3.4746-2.2652,11.7312,11.7312,0,0,0-5.0708-.7207,8.3274,8.3274,0,0,0-3.9126,1.0293,7.6007,7.6007,0,0,0-2.9346,4.4273,15.2233,15.2233,0,0,0-.4116,6.8471,11.4767,11.4767,0,0,0,2.8828,6.126,5.87,5.87,0,0,0,4.0669,1.6992,7.9525,7.9525,0,0,0,5.56-2.1108,11.9167,11.9167,0,0,0,2.6255-3.501,10.5477,10.5477,0,0,0,1.0811-3.3975,8.0892,8.0892,0,0,0,.0512-.875,7.1063,7.1063,0,0,0-.1542-1.4931,7.7294,7.7294,0,0,0-.772-2.2652,9.1568,9.1568,0,0,0-1.5445-2.2138q-.309-.2563-.7207-.6177a.7736.7736,0,0,1-.2578-.3086q-.2058-.4116-.4116-.8237a.2072.2072,0,0,1-.0517-.1548.3189.3189,0,0,1,.36-.36q.5142.0521.9785.1031a.7335.7335,0,0,1,.4116.103q.5142.361.9268.6694a10.6138,10.6138,0,0,1,2.3164,2.3164,10.1746,10.1746,0,0,1,1.39,2.8828,9.3469,9.3469,0,0,1,.3091,2.3682,8.5421,8.5421,0,0,1-.0517.9268,12.7368,12.7368,0,0,1-1.2871,4.4272,13.7217,13.7217,0,0,1-3.3975,4.4273,10.4887,10.4887,0,0,1-7.5161,2.6254,8.4508,8.4508,0,0,1-5.7144-2.728,13.9043,13.9043,0,0,1-3.501-7.4648,17.579,17.579,0,0,1,.4634-7.9282A9.7512,9.7512,0,0,1,185.63,44.875a10.7961,10.7961,0,0,1,5.0962-1.3384h.3091a14.5263,14.5263,0,0,1,5.8686,1.2354,8.1619,8.1619,0,0,1,4.0156,3.1919,5.2628,5.2628,0,0,1,.5664,2.4712,10.3685,10.3685,0,0,1-.206,2.2133,2.5947,2.5947,0,0,1-.2573.8238.6528.6528,0,0,1-.3091.36A.5787.5787,0,0,1,200.0957,53.8843Z" transform="translate(-44.9497 -42.649)"/><path class="a" d="M221.9229,45.2354v.6176a4.4744,4.4744,0,0,1-.1543,1.1841q-.1546.67-.36,1.3384-.2586.7221-.6177,1.4932a15.7319,15.7319,0,0,1-.7207,1.5444,18.3335,18.3335,0,0,1-2.42,3.9639,7.1012,7.1012,0,0,1-2.8311,2.3168q.2563,5.4573.3086,6.0748a17.034,17.034,0,0,0,.36,2.3164v1.3383c-.0347.1377-.0689.2754-.103.4121a1.1505,1.1505,0,0,1-.1543.4117,1.1357,1.1357,0,0,1-.9781.5151.58.58,0,0,1-.2573-.0518,1.2238,1.2238,0,0,1-.4634-.1542,1.5811,1.5811,0,0,1-.206-.1543.5624.5624,0,0,1-.103-.1548.3848.3848,0,0,1-.0513-.1543,1.8619,1.8619,0,0,1-.1548-.5664c-.0342,0-.0688-.1109-.1025-.3345s-.0694-.4028-.1031-.5405v-.1543a24.4357,24.4357,0,0,1-.206-2.5742q-.052-2.11.103-5.92a5.7008,5.7008,0,0,1-2.1108-.7207,11.1558,11.1558,0,0,1-3.5-3.8095,13.4308,13.4308,0,0,1-1.8535-5.251,10.2376,10.2376,0,0,1,.103-4.0156.15.15,0,0,0,.0517-.1026.8241.8241,0,0,1,.8233-.4634.93.93,0,0,1,.5151.2574c.0337.0693.0684.1377.1031.206a2.799,2.799,0,0,1,.1543.669q.05.2066.1542.85a8.8023,8.8023,0,0,0,.2061,1.0039q.4116,1.6985.9268,3.2432v.1542a.4017.4017,0,0,1-.2574.4122h-.309a13.4431,13.4431,0,0,0,1.8017,2.934,7.96,7.96,0,0,0,2.1621,1.9566,2.6334,2.6334,0,0,0,1.2359.36,1.3653,1.3653,0,0,1,.3086-.4633.75.75,0,0,1,.4633-.1543h.1031a.9169.9169,0,0,1,.4116.1025.1525.1525,0,0,1,.103.0518,6.92,6.92,0,0,0,1.3389-1.4414,18.1788,18.1788,0,0,0,1.956-3.501q.36-.772.6177-1.4927a7.2946,7.2946,0,0,0,.4634-1.2871,5.84,5.84,0,0,0,.4116-1.1323,2.1108,2.1108,0,0,0,.103-.6695v-.4633a.9653.9653,0,0,1-.0512-.3091,1.1737,1.1737,0,0,1,.3344-.8233,1.0547,1.0547,0,0,1,.7979-.36,1.0266,1.0266,0,0,1,.4634.1025,1.1,1.1,0,0,1,.5151.36,1.3426,1.3426,0,0,1,.4375.438A1.593,1.593,0,0,1,221.9229,45.2354Z" transform="translate(-44.9497 -42.649)"/><path class="a" d="M253.8394,52.5972c-.0347.2749-.1719.4116-.4117.4116a.4094.4094,0,0,1-.4633-.4634,7.786,7.786,0,0,0-.3091-2.5225c-.0689-.1367-.1206-.24-.1543-.3085l-.0513-.0518h.0513a.45.45,0,0,0,.206.0518h.1543a.8867.8867,0,0,0,.2832-.1548.55.55,0,0,0,.18-.2574.21.21,0,0,0,.0513-.1543v.2061a6.2543,6.2543,0,0,0-.1284,1.2354q-.0272.824,0,2.0336.0249,1.21.103,2.2906t.1543,2.6772q.0769,1.596.1284,2.5225a35.4734,35.4734,0,0,0,.2578,3.81.9616.9616,0,0,0,.0513.309l-.0513-.0517c-.0347-.0684-.0693-.1367-.103-.2061a.6269.6269,0,0,0-.1548-.1025.61.61,0,0,0-.1543-.103.7976.7976,0,0,0-.3086-.1031l-.2578-.0517c-.1372.0346-.2573.0693-.36.103a.6551.6551,0,0,0-.2573.1548.7949.7949,0,0,0-.1543.2055l-.103.1031v.0517a.4022.4022,0,0,1,.0513-.1548q.0511-.5653-.36-5.4052-.0513-.6687-.18-1.9048t-.2314-2.2393q-.1039-1.0041-.1543-1.8794-.2586-4.3747.9263-6.4863A4.9665,4.9665,0,0,1,255.0752,44a9.5449,9.5449,0,0,1,3.6548-.36,8.25,8.25,0,0,1,3.2431.7208,4.9662,4.9662,0,0,1,2.2652,2.8828,11.2068,11.2068,0,0,1,.7212,3.6035,7.8445,7.8445,0,0,1-.6182,4.17,6.0339,6.0339,0,0,1-2.4194,2.5225,13.6528,13.6528,0,0,1-2.9346,1.2358,7.1806,7.1806,0,0,1-1.9048.36h-.3086a8.2947,8.2947,0,0,1-.9267-.0518,4.6723,4.6723,0,0,1-.6177-.2573,1.2422,1.2422,0,0,1-.7207-.875v-.3091a1.3094,1.3094,0,0,1,.36-.875,1.3722,1.3722,0,0,1,.36-.2573,4.1933,4.1933,0,0,1,.6689-.36,13.6656,13.6656,0,0,1,1.5445-.5151,13.2571,13.2571,0,0,1,4.7363-.5147,5.2824,5.2824,0,0,1,3.3979,1.3384,5.5452,5.5452,0,0,1,1.75,3.81,8.198,8.198,0,0,1-.7719,4.376,6.39,6.39,0,0,1-3.2432,2.8315,13.3667,13.3667,0,0,1-1.5962.7207,14.27,14.27,0,0,1-2.9341.5146,6.77,6.77,0,0,1-.8237.0518c-.3437,0-.7041-.0181-1.081-.0518a8.4585,8.4585,0,0,1-2.6773-.7719.4027.4027,0,0,0-.1543-.0518,4.8751,4.8751,0,0,1-1.8017-1.853l.0512.103a4.22,4.22,0,0,1-.4375-.7724,5.1023,5.1023,0,0,1-.2832-.8238v-.206a.879.879,0,0,1,.6695-.9263l.0512-.0518h.0518a.1758.1758,0,0,1,.1284-.0512.1778.1778,0,0,1,.1289.0512h-.0518a.9211.9211,0,0,1,.9786.7207,1.9188,1.9188,0,0,0,.1543.4122,1.3668,1.3668,0,0,0,.2573.36l-.103-.103a2.7047,2.7047,0,0,0,1.2871.6694.2085.2085,0,0,0,.1543.0513,5.626,5.626,0,0,0,1.8535.4634q.6174.0519,1.2353.0512h.3091a12.7576,12.7576,0,0,0,2.2651-.3086,7.2552,7.2552,0,0,0,1.4927-.36,3.9013,3.9013,0,0,0,2.1109-1.6992,5.6517,5.6517,0,0,0,.6694-3.14,3.813,3.813,0,0,0-1.03-2.5224,3.3067,3.3067,0,0,0-2.1621-.6695,10.965,10.965,0,0,0-3.9126.4634,12.3026,12.3026,0,0,0-1.2871.5147,1.3194,1.3194,0,0,0-.3086.1548v-.0518l.103-.103a.1489.1489,0,0,0,.0513-.1026.652.652,0,0,0,.1543-.2578l-.0513-.4629a.2123.2123,0,0,1,.0513.1543.9909.9909,0,0,0-.0513-.3091,1.7882,1.7882,0,0,0-.206-.2573c-.0347-.0337-.086-.0854-.1543-.1543h-.0518v0a3.4232,3.4232,0,0,0,.5664.0513h.1031a8.9683,8.9683,0,0,0,1.39-.2061q3.3458-.8745,4.17-2.5737a6.3962,6.3962,0,0,0,.4634-3.1406,10.7544,10.7544,0,0,0-.6694-3.0371,3.0879,3.0879,0,0,0-1.3384-1.8018,7.5654,7.5654,0,0,0-2.42-.4121,8.6788,8.6788,0,0,0-2.9341.2578,2.7238,2.7238,0,0,0-1.7505,1.1841q-.876,1.544-.6695,5.3022.0513.876.129,1.8536t.206,2.2133q.1275,1.2357.18,1.9048.4629,5.0457.4116,5.8687a1.955,1.955,0,0,1-.103.6181,1.1095,1.1095,0,0,1-1.3384.875.9349.9349,0,0,1-.7207-.4633.7615.7615,0,0,1-.2061-.36,2.9015,2.9015,0,0,1-.2055-.6694,40.4746,40.4746,0,0,1-.2061-4.17q0-.8226-.0259-3.0372-.0263-2.2127-.0258-3.3979a19.6134,19.6134,0,0,1,.36-4.8389,1.9455,1.9455,0,0,1,.103-.2573.8239.8239,0,0,1,.4634-.36.7779.7779,0,0,1,.9268.2056,1.1663,1.1663,0,0,1,.1543.36.4128.4128,0,0,1,.0517.1548q.0506.4628.1031.9262A8.38,8.38,0,0,1,253.8394,52.5972Z" transform="translate(-44.9497 -42.649)"/><path class="a" d="M285.86,65.8789a1.32,1.32,0,0,1,.0512,1.0811,1.4128,1.4128,0,0,1-.7719.9267,3.2717,3.2717,0,0,1-.5923.232,5.2878,5.2878,0,0,1-.6436.1284,12.0285,12.0285,0,0,1-1.4927.2573,24.4806,24.4806,0,0,1-2.6254.3091q-1.4941.1024-2.8833.103a24.8687,24.8687,0,0,1-2.6255-.2061,6.44,6.44,0,0,1-2.5738-.7207,2.8549,2.8549,0,0,1-1.2871-2.0078,10.419,10.419,0,0,1-.0512-2.4194q.05-1.029.5659-5.5083.6182-5.8169.6694-7.6709.0506-1.1836.0772-2.9087t.0771-2.1875v-.1548a1.9655,1.9655,0,0,1,.1548-.6177c.0337,0,.0513-.0258.0513-.0771a.2766.2766,0,0,1,.0258-.1289.4163.4163,0,0,1,.1543-.1284c.0855-.0518.1973-.1114.3345-.18a1.1072,1.1072,0,0,1,.6694,0,2.1314,2.1314,0,0,1,.3086.18.4483.4483,0,0,1,.1289.1284,2.0329,2.0329,0,0,1,.0772.206,3.2674,3.2674,0,0,1,.206.6177v.1548q.1547,3.1407.1031,5.0962,0,1.9057-.5152,7.9282-.3083,4.2217-.36,5.38a5.0954,5.0954,0,0,0,.103,1.6216v.103a4.078,4.078,0,0,0,1.3389.2056,22.9055,22.9055,0,0,0,2.3677.103q1.338,0,2.6772-.0513,1.39-.0511,2.5225-.103.7206-.1025,1.2353-.206a1.1435,1.1435,0,0,0,.36-.0513,1.99,1.99,0,0,0,.2578-.103,1.5148,1.5148,0,0,1,.5659-.1031,1.4774,1.4774,0,0,1,.6694.1543,1.5226,1.5226,0,0,1,.5147.4121A.8338.8338,0,0,1,285.86,65.8789Z" transform="translate(-44.9497 -42.649)"/><path class="a" d="M307.5332,53.8843a.4939.4939,0,0,1,.2061-.9268.2966.2966,0,0,0-.2061.103l-.103.1031v-.0518a3.5321,3.5321,0,0,0,.0517-.5664v-.1543a10.9417,10.9417,0,0,0-.1548-1.8017,3.6805,3.6805,0,0,0-.4633-1.5957,7.365,7.365,0,0,0-3.4746-2.2652,11.7312,11.7312,0,0,0-5.0708-.7207,8.3274,8.3274,0,0,0-3.9126,1.0293,7.6007,7.6007,0,0,0-2.9346,4.4273,15.2233,15.2233,0,0,0-.4116,6.8471,11.4767,11.4767,0,0,0,2.8828,6.126,5.87,5.87,0,0,0,4.0669,1.6992,7.9525,7.9525,0,0,0,5.56-2.1108,11.9167,11.9167,0,0,0,2.6255-3.501,10.5477,10.5477,0,0,0,1.0811-3.3975,8.0892,8.0892,0,0,0,.0512-.875,7.1063,7.1063,0,0,0-.1542-1.4931,7.7294,7.7294,0,0,0-.772-2.2652,9.1568,9.1568,0,0,0-1.5445-2.2138q-.309-.2563-.7207-.6177a.7736.7736,0,0,1-.2578-.3086q-.2058-.4116-.4116-.8237a.2072.2072,0,0,1-.0517-.1548.3189.3189,0,0,1,.36-.36q.5142.0521.9785.1031a.7335.7335,0,0,1,.4116.103q.5142.361.9268.6694a10.6138,10.6138,0,0,1,2.3164,2.3164,10.1746,10.1746,0,0,1,1.39,2.8828,9.3469,9.3469,0,0,1,.3091,2.3682,8.5421,8.5421,0,0,1-.0517.9268,12.7368,12.7368,0,0,1-1.2871,4.4272,13.7217,13.7217,0,0,1-3.3975,4.4273,10.4887,10.4887,0,0,1-7.5161,2.6254,8.4508,8.4508,0,0,1-5.7144-2.728,13.9043,13.9043,0,0,1-3.501-7.4648,17.579,17.579,0,0,1,.4634-7.9282,9.7512,9.7512,0,0,1,3.9644-5.8687,10.7961,10.7961,0,0,1,5.0962-1.3384h.3091a14.5263,14.5263,0,0,1,5.8686,1.2354,8.1619,8.1619,0,0,1,4.0156,3.1919,5.2628,5.2628,0,0,1,.5664,2.4712,10.3685,10.3685,0,0,1-.206,2.2133,2.5947,2.5947,0,0,1-.2573.8238.6528.6528,0,0,1-.3091.36A.5787.5787,0,0,1,307.5332,53.8843Z" transform="translate(-44.9497 -42.649)"/><path class="a" d="M331.7285,62.0181q0,.7214.0259,2.059.0249,1.34.0259,1.9048a18.9935,18.9935,0,0,1-.2061,1.9566,2.142,2.142,0,0,1-.0259.2832.4457.4457,0,0,1-.0771.2314,1.2941,1.2941,0,0,1-.3862.9522,1.76,1.76,0,0,1-.9522.4892,1.5618,1.5618,0,0,1-1.75-1.5444v-.36l.1031-.5146a11.3584,11.3584,0,0,0,.103-1.4932V64.85a7.624,7.624,0,0,1-.9268.875,11.7841,11.7841,0,0,1-4.9424,2.6773q-4.1191.8224-6.6923-1.03a7.102,7.102,0,0,1-2.78-4.5821,16.2433,16.2433,0,0,1,.7719-7.98,20.6409,20.6409,0,0,1,3.6294-6.7954A11.8531,11.8531,0,0,1,322.9771,44a7.8488,7.8488,0,0,1,4.53-.103,3.5453,3.5453,0,0,1,2.1621,1.5957,1.3158,1.3158,0,0,1,.0513,1.1841,1.701,1.701,0,0,1-.9268.7207.2083.2083,0,0,1-.1543.0517c-.2749,0-.4116-.1548-.4116-.4634a.4945.4945,0,0,1,.1543-.36q.2571-.1545.2573-.2573a.41.41,0,0,0-.0512-.1548,2.5807,2.5807,0,0,0-1.4414-.5659,6.8605,6.8605,0,0,0-1.4414-.1548,6.3591,6.3591,0,0,0-2.1109.36,9.9868,9.9868,0,0,0-4.5561,3.4751A18.063,18.063,0,0,0,315.77,55.377a13.4734,13.4734,0,0,0-.6176,7.0014,5.11,5.11,0,0,0,2.059,3.2949,6.1065,6.1065,0,0,0,4.9937.566,9.65,9.65,0,0,0,4.0156-2.2652,7.8125,7.8125,0,0,0,2.3164-3.14,2.3,2.3,0,0,0,.2061-.5664q.1024-1.3895.103-1.4927a.5569.5569,0,0,0-.103-.3091,3.2212,3.2212,0,0,0-1.39-1.2095,11.5565,11.5565,0,0,0-2.3164-.9526,11.8974,11.8974,0,0,0-2.8315-.36h-1.0293a.4088.4088,0,0,1-.2578-.0513,1.1308,1.1308,0,0,1-.36-.0518.9521.9521,0,0,1-.7207-1.03.9316.9316,0,0,1,.5664-.9262,2.0382,2.0382,0,0,1,.4117-.1548h.3608a.7235.7235,0,0,1,.3086-.0513q.2051,0,.9267-.0771.72-.0777,1.1324-.1289,3.5-.36,4.582-.36a10.8772,10.8772,0,0,1,1.2354.0518,2.2817,2.2817,0,0,1,1.4931.978,7.7879,7.7879,0,0,1,.8237,3.5522q0,.8241.0254,2.4454T331.7285,62.0181Zm-3.14-6.6411c.0683.0346.1367.0693.2055.103a.1522.1522,0,0,0-.0512-.103Z" transform="translate(-44.9497 -42.649)"/><path class="b" d="M230.6172,55.623a6.2394,6.2394,0,0,1-2.4761,3.5733,6.1325,6.1325,0,0,1-1.9263.9228l-.39-.7837a4.4782,4.4782,0,0,0,3.1367-2.7573c-.1548-.0146-.2207-.02-.1953-.0127a1.4549,1.4549,0,0,1-.9834-1.7021,1.4847,1.4847,0,0,1,.6856-.916,1.3452,1.3452,0,0,1,1.0844-.1685,1.4526,1.4526,0,0,1,1.064,1.8442Z" transform="translate(-44.9497 -42.649)"/><path class="b" d="M240.1177,72.6787a2.9521,2.9521,0,0,1-.6909,1.5332,3.5234,3.5234,0,0,1-1.2828,1.0547,4.3357,4.3357,0,0,1-1.1494.4121,5.3188,5.3188,0,0,1-2.3872-.04c-.0986-.0264-.1992-.0528-.2978-.08a7.5826,7.5826,0,0,1-1.731-.7036,6.1349,6.1349,0,0,1-1.16-1.19q-.3025-.36-.5684-.7119-.219-.3779-.41-.709a2.9335,2.9335,0,0,1-.1806-.3686c-.0186-.0313-.0376-.063-.0552-.0942a4.0124,4.0124,0,0,1-.15-1.08c.0063-.0244.0166-.0616.03-.1118a1.713,1.713,0,0,1,.2143-.502.2512.2512,0,0,1,.2647-.0894.2651.2651,0,0,1,.1665.1241,1.3,1.3,0,0,0,.1909.331c.0176.0323.0361.064.0542.0948a3.7038,3.7038,0,0,0,.4194.6718l.0284.0479c.0542.0942.1084.1894.1635.2837.1329.1958.2676.3916.4014.5874a5.7943,5.7943,0,0,0,.5249.58,4.049,4.049,0,0,0,.8569.8291,4.9672,4.9672,0,0,0,1.3946.6137c.05.0132.1.0269.1494.04a4.4052,4.4052,0,0,0,1.7773.0766,3.7775,3.7775,0,0,0,.8662-.248,2.1483,2.1483,0,0,0,.9014-.6778,1.7905,1.7905,0,0,0,.3955-.7334c.0137-.05.0264-.0986.04-.1494a1.8455,1.8455,0,0,0-.6758-1.5l-2.1153-1.8056q-.7206-.5919-1.0839-.95a4.6525,4.6525,0,0,1-.71-.93,2.6065,2.6065,0,0,1-.3936-1.145,2.4187,2.4187,0,0,1,.5611-1.648,4.4872,4.4872,0,0,1,1.4638-1.2861,5.0518,5.0518,0,0,1,2.6929-.7979,2.41,2.41,0,0,1,1.625.7949.5755.5755,0,0,0,.12.1524c.0132-.05.0284-.106.045-.168a.39.39,0,0,0,.0078-.1782l.03-.1118a.5289.5289,0,0,1,.6147-.3545.45.45,0,0,1,.3672.418,6.935,6.935,0,0,1-.1792,1.271q-.0534.3449-.334,1.39-.06.2233-.12.4478a1.1491,1.1491,0,0,1-.0318.271l-.01.0376-.01.0371-.01.0376-.02.0742-.01.0376a.5906.5906,0,0,1-1.1035-.0567l-.0283-.0473a.3041.3041,0,0,0-.0069-.1216,3.9748,3.9748,0,0,1,.0347-.4307,3.2936,3.2936,0,0,1,.0537-.3447,2.0856,2.0856,0,0,0-.3491-1.5332,1.0549,1.0549,0,0,0-.7642-.2842,3.3511,3.3511,0,0,0-1.9194.6045,3.681,3.681,0,0,0-1.1314.9365,1.266,1.266,0,0,0-.2939.8q.0272.6468,1.7065,2.1363,2.1306,1.89,2.1211,1.9267A2.8994,2.8994,0,0,1,240.1177,72.6787Z" transform="translate(-44.9497 -42.649)"/></svg>